SplineFontDB: 3.0
FontName: Monda-Bold
FullName: Monda Bold
FamilyName: Monda
Weight: Normal
Copyright: Digitized data Copyright (c) 2011-2013, vernon adams.
Version: 2.0
ItalicAngle: 0
UnderlinePosition: 0
UnderlineWidth: 0
Ascent: 1638
Descent: 410
UFOAscent: 2030
UFODescent: -675
LayerCount: 2
Layer: 0 0 "Back"  1
Layer: 1 0 "Fore"  0
OS2Version: 0
OS2_WeightWidthSlopeOnly: 0
OS2_UseTypoMetrics: 0
CreationTime: 1391998675
ModificationTime: 1391998721
PfmFamily: 0
TTFWeight: 700
TTFWidth: 5
LineGap: 0
VLineGap: 0
OS2TypoAscent: 1999
OS2TypoAOffset: 0
OS2TypoDescent: 572
OS2TypoDOffset: 0
OS2TypoLinegap: 0
OS2WinAscent: 1999
OS2WinAOffset: 0
OS2WinDescent: -572
OS2WinDOffset: 0
HheadAscent: 0
HheadAOffset: 1
HheadDescent: 0
HheadDOffset: 1
OS2Vendor: 'NeWT'
Lookup: 4 0 1 "ligaStandardLigatureslookup0"  {"ligaStandardLigatureslookup0 subtable"  } ['liga' ('latn' <'dflt' > 'grek' <'dflt' > 'DFLT' <'dflt' > ) ]
Lookup: 6 0 0 "loclLocalizedFormsinLatinlookup"  {"loclLocalizedFormsinLatinlookup contextual 0"  "loclLocalizedFormsinLatinlookup contextual 1"  } ['locl' ('latn' <'dflt' 'CAT ' > ) ]
Lookup: 4 0 0 "Ligature Substitution lookup 2"  {"Ligature Substitution lookup 2 subtable"  } []
Lookup: 4 0 0 "Ligature Substitution lookup 3"  {"Ligature Substitution lookup 3 subtable"  } []
Lookup: 1 0 0 "sub_single_locllatn_0"  {"sub_single_locllatn_0 subtable"  } ['locl' ('latn' <'dflt' 'ROM ' > ) ]
Lookup: 1 0 0 "sub_single_locllatn_2"  {"sub_single_locllatn_2 subtable"  } ['locl' ('latn' <'dflt' 'MOL ' > ) ]
Lookup: 1 0 0 "sub_single_locllatn_4"  {"sub_single_locllatn_4 subtable"  } ['locl' ('latn' <'dflt' 'KAZ ' > ) ]
Lookup: 1 0 0 "sub_single_locllatn_6"  {"sub_single_locllatn_6 subtable"  } ['locl' ('latn' <'dflt' 'TAT ' > ) ]
Lookup: 1 0 0 "sub_single_locllatn_8"  {"sub_single_locllatn_8 subtable"  } ['locl' ('latn' <'dflt' 'TRK ' > ) ]
Lookup: 1 0 0 "sub_single_locllatn_10"  {"sub_single_locllatn_10 subtable"  } ['locl' ('latn' <'dflt' 'CRT ' > ) ]

StartChar: A
Encoding: 65 65 0
Width: 1540
VWidth: 0
GlyphClass: 2
Flags: HW
PickledData: "(dp1
S'org.robofab.postScriptHintData'
p2
(dp3
s."
AnchorPoint: "top" 781 1476 basechar 0
AnchorPoint: "ogonek" 1288 0 basechar 0
LayerCount: 2
Fore
SplineSet
84 0 m 257
 391 0 l 257
 477 281 l 257
 1061 281 l 257
 1144 0 l 257
 1456 0 l 257
 964 1476 l 257
 570 1476 l 257
 84 0 l 257
536 479 m 257
 774 1245 l 257
 1004 479 l 257
 536 479 l 257
EndSplineSet
Substitution2: "Single Substitution lookup 14 subtable" ordfeminine
EndChar

StartChar: AE
Encoding: 198 198 1
Width: 1834
VWidth: 0
GlyphClass: 2
Flags: HW
PickledData: "(dp1
S'org.robofab.postScriptHintData'
p2
(dp3
s."
AnchorPoint: "top" 1096 1476 basechar 0
LayerCount: 2
Fore
SplineSet
83 0 m 257
 393 0 l 257
 472 281 l 257
 893 281 l 257
 893 0 l 257
 1710 0 l 257
 1710 227 l 257
 1173 227 l 257
 1173 645 l 257
 1630 645 l 257
 1630 858 l 257
 1173 858 l 257
 1173 1249 l 257
 1700 1249 l 257
 1700 1477 l 257
 539 1477 l 257
 83 0 l 257
527 477 m 257
 757 1249 l 257
 893 1249 l 257
 893 477 l 257
 527 477 l 257
EndSplineSet
EndChar

StartChar: B
Encoding: 66 66 17
Width: 1492
VWidth: 0
GlyphClass: 2
Flags: HW
PickledData: "(dp1
S'org.robofab.postScriptHintData'
p2
(dp3
s."
AnchorPoint: "top" 749 1476 basechar 0
LayerCount: 2
Fore
SplineSet
212 0 m 257
 852 0 l 258
 1210 0 1366 133 1366 428 c 258
 1366 448 l 258
 1366 641 1319 776 1114 804 c 257
 1268 843 1302 938 1303 1088 c 256
 1303 1353 1193 1476 780 1476 c 258
 212 1476 l 257
 212 0 l 257
509 208 m 257
 509 703 l 257
 827 703 l 258
 1049 703 1070 602 1070 455 c 256
 1070 250 1028 208 797 208 c 258
 509 208 l 257
509 882 m 257
 509 1273 l 257
 761 1273 l 258
 962 1273 1000 1240 1000 1085 c 256
 1000 952 989 882 816 882 c 258
 509 882 l 257
EndSplineSet
EndChar

StartChar: C
Encoding: 67 67 19
Width: 1509
VWidth: 0
GlyphClass: 2
Flags: HW
PickledData: "(dp1
S'org.robofab.postScriptHintData'
p2
(dp3
s."
AnchorPoint: "top" 788 1476 basechar 0
AnchorPoint: "bot" 765 0 basechar 0
LayerCount: 2
Fore
SplineSet
788 -26 m 256
 1300 -26 1370 190 1370 480 c 258
 1370 507 l 257
 1079 507 l 257
 1079 460 l 258
 1079 250 1014 207 789 207 c 256
 567 207 465 252 465 454 c 258
 465 1012 l 258
 465 1215 568 1268 788 1268 c 256
 1013 1268 1079 1213 1079 1006 c 258
 1079 931 l 257
 1370 965 l 257
 1370 983 l 258
 1370 1281 1292 1501 788 1501 c 256
 259 1501 168 1275 168 977 c 258
 168 484 l 258
 168 193 262 -26 788 -26 c 256
EndSplineSet
EndChar

StartChar: D
Encoding: 68 68 26
Width: 1564
VWidth: 0
GlyphClass: 2
Flags: HW
PickledData: "(dp1
S'org.robofab.postScriptHintData'
p2
(dp3
s."
AnchorPoint: "top" 779 1476 basechar 0
AnchorPoint: "mid" 375 781 basechar 0
LayerCount: 2
Fore
SplineSet
509 231 m 257
 509 1245 l 257
 827 1245 l 258
 1033 1245 1099 1160 1099 1000 c 258
 1099 470 l 258
 1099 306 1036 231 827 231 c 258
 509 231 l 257
212 0 m 257
 853 0 l 258
 1268 0 1396 213 1396 508 c 258
 1396 961 l 258
 1396 1250 1280 1476 852 1476 c 258
 212 1476 l 257
 212 0 l 257
EndSplineSet
EndChar

StartChar: uni0394
Encoding: 916 916 30
Width: 1419
VWidth: 0
GlyphClass: 2
Flags: HW
PickledData: "(dp1
S'org.robofab.postScriptHintData'
p2
(dp3
s."
LayerCount: 2
Fore
SplineSet
108 0 m 257
 1309 0 l 257
 831 1476 l 257
 614 1476 l 257
 108 0 l 257
379 198 m 257
 688 1141 l 257
 965 198 l 257
 379 198 l 257
EndSplineSet
EndChar

StartChar: E
Encoding: 69 69 33
Width: 1316
VWidth: 0
GlyphClass: 2
Flags: HW
PickledData: "(dp1
S'org.robofab.postScriptHintData'
p2
(dp3
s."
AnchorPoint: "top" 743 1476 basechar 0
AnchorPoint: "ogonek" 892 0 basechar 0
AnchorPoint: "bot" 727 0 basechar 0
LayerCount: 2
Fore
SplineSet
212 0 m 257
 1190 0 l 257
 1190 224 l 257
 508 224 l 257
 508 646 l 257
 1103 646 l 257
 1103 860 l 257
 508 860 l 257
 508 1252 l 257
 1179 1252 l 257
 1179 1476 l 257
 212 1476 l 257
 212 0 l 257
EndSplineSet
EndChar

StartChar: Eng
Encoding: 330 330 44
Width: 1640
VWidth: 0
GlyphClass: 2
Flags: HW
PickledData: "(dp1
S'org.robofab.postScriptHintData'
p2
(dp3
s."
LayerCount: 2
Fore
SplineSet
901 -382 m 257
 1343 -382 1450 -219 1450 162 c 258
 1450 1477 l 257
 1183 1477 l 257
 1183 560 l 257
 415 1477 l 257
 190 1477 l 257
 190 0 l 257
 458 0 l 257
 458 996 l 257
 1177 153 l 257
 1177 117 l 258
 1177 -159 1106 -171 873 -192 c 257
 901 -382 l 257
EndSplineSet
EndChar

StartChar: Euro
Encoding: 8364 8364 48
Width: 1490
VWidth: 0
GlyphClass: 2
Flags: HW
PickledData: "(dp1
S'org.robofab.postScriptHintData'
p2
(dp3
s."
LayerCount: 2
Fore
SplineSet
788 838 m 257
 788 972 l 257
 46 972 l 257
 46 838 l 257
 788 838 l 257
788 536 m 257
 788 670 l 257
 46 670 l 257
 46 536 l 257
 788 536 l 257
EndSplineSet
Refer: 19 67 N 1 0 0 1 0 0 2
EndChar

StartChar: F
Encoding: 70 70 49
Width: 1195
VWidth: 0
GlyphClass: 2
Flags: HW
PickledData: "(dp1
S'org.robofab.postScriptHintData'
p2
(dp3
s."
AnchorPoint: "top" 698 1476 basechar 0
LayerCount: 2
Fore
SplineSet
212 0 m 257
 509 0 l 257
 509 634 l 257
 1064 634 l 257
 1064 847 l 257
 509 847 l 257
 509 1249 l 257
 1105 1249 l 257
 1105 1476 l 257
 212 1476 l 257
 212 0 l 257
EndSplineSet
EndChar

StartChar: G
Encoding: 71 71 51
Width: 1623
VWidth: 0
GlyphClass: 2
Flags: HW
PickledData: "(dp1
S'org.robofab.postScriptHintData'
p2
(dp3
s."
AnchorPoint: "top" 823 1476 basechar 0
AnchorPoint: "bot" 768 0 basechar 0
LayerCount: 2
Fore
SplineSet
821 -26 m 256
 1140 -26 1208 123 1223 170 c 257
 1270 0 l 257
 1427 0 l 257
 1427 757 l 257
 861 757 l 257
 861 562 l 257
 1159 562 l 257
 1159 454 l 258
 1159 252 1046 207 821 207 c 256
 599 207 466 252 466 454 c 258
 466 1012 l 258
 466 1215 601 1268 821 1268 c 256
 1043 1268 1134 1219 1134 1021 c 258
 1134 962 l 257
 1426 984 l 257
 1426 1007 l 258
 1426 1290 1333 1501 821 1501 c 256
 292 1501 168 1275 168 977 c 258
 168 484 l 258
 168 193 295 -26 821 -26 c 256
EndSplineSet
EndChar

StartChar: H
Encoding: 72 72 58
Width: 1668
VWidth: 0
GlyphClass: 2
Flags: HW
PickledData: "(dp1
S'org.robofab.postScriptHintData'
p2
(dp3
s."
AnchorPoint: "top" 847 1476 basechar 0
LayerCount: 2
Fore
SplineSet
212 0 m 257
 510 0 l 257
 510 615 l 257
 1158 615 l 257
 1158 0 l 257
 1456 0 l 257
 1456 1476 l 257
 1158 1476 l 257
 1158 848 l 257
 510 848 l 257
 510 1476 l 257
 212 1476 l 257
 212 0 l 257
EndSplineSet
EndChar

StartChar: Hbar
Encoding: 294 294 59
Width: 1624
VWidth: 0
GlyphClass: 2
Flags: HW
PickledData: "(dp1
S'org.robofab.postScriptHintData'
p2
(dp3
s."
LayerCount: 2
Fore
SplineSet
84 1132 m 257
 1540 1132 l 257
 1540 1236 l 257
 84 1236 l 257
 84 1132 l 257
EndSplineSet
Refer: 58 72 N 1 0 0 1 0 0 2
EndChar

StartChar: I
Encoding: 73 73 61
Width: 1148
VWidth: 0
GlyphClass: 2
Flags: HW
PickledData: "(dp1
S'org.robofab.postScriptHintData'
p2
(dp3
s."
AnchorPoint: "top" 596 1476 basechar 0
AnchorPoint: "ogonek" 583 0 basechar 0
LayerCount: 2
Fore
SplineSet
158 0 m 257
 990 0 l 257
 990 222 l 257
 723 222 l 257
 723 1255 l 257
 990 1255 l 257
 990 1476 l 257
 158 1476 l 257
 158 1255 l 257
 427 1255 l 257
 427 222 l 257
 158 222 l 257
 158 0 l 257
EndSplineSet
EndChar

StartChar: J
Encoding: 74 74 75
Width: 1222
VWidth: 0
GlyphClass: 2
Flags: HW
PickledData: "(dp1
S'org.robofab.postScriptHintData'
p2
(dp3
s."
AnchorPoint: "top" 637 1476 basechar 0
LayerCount: 2
Fore
SplineSet
504 -25 m 256
 835 -25 1036 138 1036 422 c 258
 1036 1476 l 257
 231 1476 l 257
 231 1250 l 257
 739 1250 l 257
 739 441 l 258
 739 313 671 209 485 209 c 256
 381 209 236 242 139 287 c 257
 70 67 l 257
 200 6 360 -25 504 -25 c 256
EndSplineSet
EndChar

StartChar: K
Encoding: 75 75 77
Width: 1470
VWidth: 0
GlyphClass: 2
Flags: HW
PickledData: "(dp1
S'org.robofab.postScriptHintData'
p2
(dp3
s."
AnchorPoint: "top" 756 1476 basechar 0
AnchorPoint: "bot" 782 0 basechar 0
LayerCount: 2
Fore
SplineSet
212 0 m 257
 509 0 l 257
 509 541 l 257
 648 679 l 257
 1113 0 l 257
 1448 0 l 257
 894 804 l 257
 1411 1476 l 257
 1083 1476 l 257
 509 760 l 257
 509 1476 l 257
 212 1476 l 257
 212 0 l 257
EndSplineSet
EndChar

StartChar: L
Encoding: 76 76 80
Width: 1194
VWidth: 0
GlyphClass: 2
Flags: HW
PickledData: "(dp1
S'org.robofab.postScriptHintData'
p2
(dp3
s."
AnchorPoint: "top" 444 1476 basechar 0
AnchorPoint: "bot" 657 0 basechar 0
AnchorPoint: "mid" 425 811 basechar 0
LayerCount: 2
Fore
SplineSet
212 0 m 257
 1126 0 l 257
 1126 232 l 257
 509 232 l 257
 509 1476 l 257
 212 1476 l 257
 212 0 l 257
EndSplineSet
EndChar

StartChar: Lslash
Encoding: 321 321 86
Width: 1172
VWidth: 0
GlyphClass: 2
Flags: HW
PickledData: "(dp1
S'org.robofab.postScriptHintData'
p2
(dp3
s."
LayerCount: 2
Fore
SplineSet
24 560 m 257
 793 871 l 257
 793 1094 l 257
 24 783 l 257
 24 560 l 257
EndSplineSet
Refer: 80 76 N 1 0 0 1 0 0 2
EndChar

StartChar: M
Encoding: 77 77 87
Width: 1918
VWidth: 0
GlyphClass: 2
Flags: HW
PickledData: "(dp1
S'org.robofab.postScriptHintData'
p2
(dp3
s."
AnchorPoint: "top" 984 1476 basechar 0
LayerCount: 2
Fore
SplineSet
212 0 m 257
 490 0 l 257
 490 1087 l 257
 860 429 l 257
 1059 429 l 257
 1428 1091 l 257
 1428 0 l 257
 1706 0 l 257
 1706 1476 l 257
 1373 1476 l 257
 959 761 l 257
 539 1476 l 257
 212 1476 l 257
 212 0 l 257
EndSplineSet
EndChar

StartChar: N
Encoding: 78 78 89
Width: 1678
VWidth: 0
GlyphClass: 2
Flags: HW
PickledData: "(dp1
S'org.robofab.postScriptHintData'
p2
(dp3
s."
AnchorPoint: "top" 864 1476 basechar 0
AnchorPoint: "bot" 902 0 basechar 0
LayerCount: 2
Fore
SplineSet
212 0 m 257
 479 0 l 257
 479 996 l 257
 1243 0 l 257
 1466 0 l 257
 1466 1476 l 257
 1202 1476 l 257
 1202 464 l 257
 435 1476 l 257
 212 1476 l 257
 212 0 l 257
EndSplineSet
EndChar

StartChar: O
Encoding: 79 79 96
Width: 1622
VWidth: 0
GlyphClass: 2
Flags: HW
PickledData: "(dp1
S'org.robofab.postScriptHintData'
p2
(dp3
s."
AnchorPoint: "top" 822 1476 basechar 0
AnchorPoint: "ogonek" 883 0 basechar 0
LayerCount: 2
Fore
SplineSet
822 207 m 256
 600 207 466 265 466 468 c 258
 466 1003 l 258
 466 1205 602 1268 822 1268 c 256
 1044 1268 1156 1201 1156 1003 c 258
 1156 468 l 258
 1156 266 1046 207 822 207 c 256
822 -26 m 256
 1330 -26 1454 227 1454 517 c 258
 1454 948 l 258
 1454 1247 1332 1501 822 1501 c 256
 289 1501 168 1262 168 963 c 258
 168 501 l 258
 168 209 291 -26 822 -26 c 256
EndSplineSet
Substitution2: "Single Substitution lookup 15 subtable" ordmasculine
EndChar

StartChar: OE
Encoding: 338 338 97
Width: 1633
VWidth: 0
GlyphClass: 2
Flags: HW
PickledData: "(dp1
S'org.robofab.postScriptHintData'
p2
(dp3
s."
LayerCount: 2
Fore
SplineSet
717 0 m 258
 1507 0 l 257
 1507 190 l 257
 1156 190 l 257
 1156 665 l 257
 1422 665 l 257
 1422 858 l 257
 1156 858 l 257
 1156 1287 l 257
 1505 1287 l 257
 1505 1476 l 257
 717 1476 l 257
 264 1475 160 1247 160 958 c 258
 160 506 l 258
 160 211 266 0 717 0 c 258
714 191 m 258
 494 191 430 302 430 444 c 258
 430 1022 l 258
 430 1165 495 1279 713 1279 c 258
 886 1279 l 257
 886 191 l 257
 714 191 l 258
EndSplineSet
EndChar

StartChar: Omega
Encoding: 8486 8486 105
Width: 1634
VWidth: 0
GlyphClass: 2
Flags: HW
PickledData: "(dp1
S'org.robofab.postScriptHintData'
p2
(dp3
s."
LayerCount: 2
Fore
SplineSet
817 1489 m 256
 433 1489 146 1418 146 746 c 256
 146 458 280 296 421 206 c 257
 167 206 l 257
 167 0 l 257
 735 0 l 257
 735 192 l 257
 512 305 454 447 454 779 c 256
 454 1231 584 1271 817 1271 c 256
 1060 1271 1180 1231 1180 779 c 256
 1180 447 1122 305 899 192 c 257
 899 0 l 257
 1467 0 l 257
 1467 206 l 257
 1213 206 l 257
 1354 296 1488 458 1488 746 c 256
 1488 1418 1211 1489 817 1489 c 256
EndSplineSet
EndChar

StartChar: Oslash
Encoding: 216 216 111
Width: 1606
VWidth: 0
GlyphClass: 2
Flags: HW
PickledData: "(dp1
S'org.robofab.postScriptHintData'
p2
(dp3
s."
LayerCount: 2
Fore
SplineSet
504 -217 m 257
 1227 1675 l 257
 1140 1698 l 257
 417 -194 l 257
 504 -217 l 257
EndSplineSet
Refer: 96 79 N 1 0 0 1 0 0 2
EndChar

StartChar: P
Encoding: 80 80 114
Width: 1408
VWidth: 0
GlyphClass: 2
Flags: HW
PickledData: "(dp1
S'org.robofab.postScriptHintData'
p2
(dp3
s."
AnchorPoint: "top" 728 1476 basechar 0
LayerCount: 2
Fore
SplineSet
212 0 m 257
 509 0 l 257
 509 509 l 257
 762 509 l 258
 1148 509 1272 663 1272 1005 c 256
 1272 1337 1117 1476 791 1476 c 258
 212 1476 l 257
 212 0 l 257
509 726 m 257
 509 1265 l 257
 819 1265 l 258
 959 1265 994 1145 994 990 c 256
 994 813 959 726 809 726 c 258
 509 726 l 257
EndSplineSet
EndChar

StartChar: Q
Encoding: 81 81 116
Width: 1622
VWidth: 0
GlyphClass: 2
Flags: HW
PickledData: "(dp1
S'org.robofab.postScriptHintData'
p2
(dp3
s."
LayerCount: 2
Fore
SplineSet
1018 -534 m 257
 1207 -426 l 257
 962 -19 l 257
 1353 25 1454 256 1454 517 c 258
 1454 948 l 258
 1454 1247 1332 1501 822 1501 c 256
 289 1501 168 1262 168 963 c 258
 168 501 l 258
 168 234 271 14 696 -21 c 257
 1018 -534 l 257
822 207 m 256
 600 207 466 265 466 468 c 258
 466 1003 l 258
 466 1205 602 1268 822 1268 c 256
 1044 1268 1156 1201 1156 1003 c 258
 1156 468 l 258
 1156 266 1046 207 822 207 c 256
EndSplineSet
EndChar

StartChar: R
Encoding: 82 82 117
Width: 1524
VWidth: 0
GlyphClass: 2
Flags: HW
PickledData: "(dp1
S'org.robofab.postScriptHintData'
p2
(dp3
s."
AnchorPoint: "top" 718 1476 basechar 0
AnchorPoint: "bot" 803 0 basechar 0
LayerCount: 2
Fore
SplineSet
212 0 m 257
 509 0 l 257
 509 583 l 257
 843 583 l 257
 1102 0 l 257
 1410 0 l 257
 1125 626 l 257
 1305 699 1342 853 1342 1035 c 256
 1342 1301 1241 1476 849 1476 c 258
 212 1476 l 257
 212 0 l 257
509 795 m 257
 509 1265 l 257
 886 1265 l 258
 1033 1265 1058 1142 1058 1022 c 256
 1058 896 1026 795 874 795 c 258
 509 795 l 257
EndSplineSet
EndChar

StartChar: S
Encoding: 83 83 123
Width: 1281
VWidth: 0
GlyphClass: 2
Flags: HW
PickledData: "(dp1
S'org.robofab.postScriptHintData'
p2
(dp3
s."
AnchorPoint: "top" 670 1476 basechar 0
AnchorPoint: "bot" 702 0 basechar 0
LayerCount: 2
Fore
SplineSet
898 412 m 256
 898 287 860 207 681 207 c 256
 498 207 335 265 222 325 c 257
 120 108 l 257
 268 25 487 -26 688 -26 c 256
 1025 -26 1169 172 1169 422 c 256
 1169 654 1069 777 870 837 c 258
 619 912 l 258
 471 956 428 1003 428 1103 c 256
 428 1225 514 1268 675 1268 c 256
 819 1268 949 1229 1059 1177 c 257
 1143 1386 l 257
 1007 1465 844 1501 649 1501 c 256
 358 1501 136 1369 136 1094 c 256
 136 905 201 752 442 681 c 258
 694 607 l 258
 871 555 898 493 898 412 c 256
EndSplineSet
EndChar

StartChar: Sigma
Encoding: 931 931 131
Width: 1196
VWidth: 0
GlyphClass: 2
Flags: HW
PickledData: "(dp1
S'org.robofab.postScriptHintData'
p2
(dp3
s."
LayerCount: 2
Fore
SplineSet
1090 0 m 257
 1090 226 l 257
 446 226 l 257
 873 734 l 257
 873 812 l 257
 449 1252 l 257
 1090 1252 l 257
 1090 1476 l 257
 92 1476 l 257
 92 1291 l 257
 573 761 l 257
 92 191 l 257
 92 0 l 257
 1090 0 l 257
EndSplineSet
EndChar

StartChar: T
Encoding: 84 84 132
Width: 1194
VWidth: 0
GlyphClass: 2
Flags: HW
PickledData: "(dp1
S'org.robofab.postScriptHintData'
p2
(dp3
s."
AnchorPoint: "top" 601 1476 basechar 0
AnchorPoint: "bot" 575 0 basechar 0
AnchorPoint: "mid" 603 762 basechar 0
LayerCount: 2
Fore
SplineSet
449 0 m 257
 745 0 l 257
 745 1250 l 257
 1156 1250 l 257
 1156 1476 l 257
 38 1476 l 257
 38 1250 l 257
 449 1250 l 257
 449 0 l 257
EndSplineSet
EndChar

StartChar: Thorn
Encoding: 222 222 137
Width: 1362
VWidth: 0
GlyphClass: 2
Flags: HW
PickledData: "(dp1
S'org.robofab.postScriptHintData'
p2
(dp3
s."
LayerCount: 2
Fore
SplineSet
216 0 m 257
 513 0 l 257
 513 356 l 257
 778 356 l 258
 1164 356 1272 469 1272 811 c 256
 1272 1143 1133 1240 806 1240 c 258
 513 1240 l 257
 513 1476 l 257
 216 1476 l 257
 216 0 l 257
513 567 m 257
 513 1033 l 257
 834 1033 l 258
 974 1033 1004 951 1004 797 c 256
 1004 619 975 567 825 567 c 258
 513 567 l 257
EndSplineSet
EndChar

StartChar: U
Encoding: 85 85 138
Width: 1606
VWidth: 0
GlyphClass: 2
Flags: HW
PickledData: "(dp1
S'org.robofab.postScriptHintData'
p2
(dp3
s."
AnchorPoint: "top" 825 1476 basechar 0
AnchorPoint: "ogonek" 889 0 basechar 0
LayerCount: 2
Fore
SplineSet
812 -26 m 256
 1310 -26 1414 199 1414 480 c 258
 1414 1477 l 257
 1117 1477 l 257
 1117 455 l 258
 1117 263 1020 207 812 207 c 256
 607 207 489 260 489 455 c 258
 489 1477 l 257
 192 1477 l 257
 192 468 l 258
 192 186 307 -26 812 -26 c 256
EndSplineSet
EndChar

StartChar: V
Encoding: 86 86 152
Width: 1484
VWidth: 0
GlyphClass: 2
Flags: HW
PickledData: "(dp1
S'org.robofab.postScriptHintData'
p2
(dp3
s."
LayerCount: 2
Fore
SplineSet
564 0 m 257
 924 0 l 257
 1444 1476 l 257
 1129 1476 l 257
 748 287 l 257
 354 1476 l 257
 40 1476 l 257
 564 0 l 257
EndSplineSet
EndChar

StartChar: W
Encoding: 87 87 153
Width: 2014
VWidth: 0
GlyphClass: 2
Flags: HW
PickledData: "(dp1
S'org.robofab.postScriptHintData'
p2
(dp3
s."
AnchorPoint: "top" 996 1476 basechar 0
LayerCount: 2
Fore
SplineSet
447 0 m 257
 713 0 l 257
 1003 1053 l 257
 1319 0 l 257
 1568 0 l 257
 1944 1476 l 257
 1662 1476 l 257
 1434 466 l 257
 1121 1476 l 257
 872 1476 l 257
 600 455 l 257
 351 1476 l 257
 70 1476 l 257
 447 0 l 257
EndSplineSet
EndChar

StartChar: X
Encoding: 88 88 158
Width: 1352
VWidth: 0
GlyphClass: 2
Flags: HW
PickledData: "(dp1
S'org.robofab.postScriptHintData'
p2
(dp3
s."
LayerCount: 2
Fore
SplineSet
38 0 m 257
 348 0 l 257
 669 501 l 257
 987 0 l 257
 1314 0 l 257
 830 749 l 257
 1297 1476 l 257
 969 1476 l 257
 669 997 l 257
 359 1476 l 257
 50 1476 l 257
 513 748 l 257
 38 0 l 257
EndSplineSet
EndChar

StartChar: Y
Encoding: 89 89 159
Width: 1340
VWidth: 0
GlyphClass: 2
Flags: HW
PickledData: "(dp1
S'org.robofab.postScriptHintData'
p2
(dp3
s."
AnchorPoint: "top" 694 1476 basechar 0
LayerCount: 2
Fore
SplineSet
527 0 m 257
 823 0 l 257
 823 567 l 257
 1322 1476 l 257
 1022 1476 l 257
 677 859 l 257
 331 1476 l 257
 18 1476 l 257
 527 567 l 257
 527 0 l 257
EndSplineSet
EndChar

StartChar: Z
Encoding: 90 90 166
Width: 1222
VWidth: 0
GlyphClass: 2
Flags: HW
PickledData: "(dp1
S'org.robofab.postScriptHintData'
p2
(dp3
s."
AnchorPoint: "top" 694 1476 basechar 0
LayerCount: 2
Fore
SplineSet
122 0 m 257
 1140 0 l 257
 1140 210 l 257
 468 210 l 257
 1128 1297 l 257
 1128 1476 l 257
 147 1476 l 257
 147 1258 l 257
 784 1258 l 257
 122 177 l 257
 122 0 l 257
EndSplineSet
EndChar

StartChar: a
Encoding: 97 97 170
Width: 1174
VWidth: 0
GlyphClass: 2
Flags: HW
PickledData: "(dp1
S'org.robofab.postScriptHintData'
p2
(dp3
sS'com.typemytype.robofont.layerData'
p4
(dp5
s."
AnchorPoint: "top" 594 1074 basechar 0
AnchorPoint: "ogonek" 1007 0 basechar 0
LayerCount: 2
Fore
SplineSet
423 -23 m 256
 580 -23 693 35 757 130 c 257
 789 43 854 -8 1013 -8 c 258
 1105 -8 l 257
 1116 190 l 257
 1018 190 1003 210 1003 308 c 258
 1003 733 l 258
 1003 955 893 1097 572 1097 c 256
 278 1097 144 963 144 755 c 258
 144 723 l 257
 399 723 l 257
 399 765 l 258
 399 848 430 907 566 907 c 256
 688 907 735 876 735 790 c 256
 735 707 705 693 650 673 c 258
 452 602 l 258
 200 512 112 415 112 278 c 256
 112 94 236 -23 423 -23 c 256
494 161 m 256
 429 161 373 194 373 289 c 256
 373 353 413 407 520 449 c 258
 735 533 l 257
 735 289 l 257
 682 207 558 161 494 161 c 256
EndSplineSet
Substitution2: "Single Substitution lookup 14 subtable" ordfeminine
EndChar

StartChar: acute
Encoding: 180 180 175
Width: 554
VWidth: 0
GlyphClass: 4
Flags: HW
PickledData: "(dp1
S'org.robofab.postScriptHintData'
p2
(dp3
s."
AnchorPoint: "top" 167 1074 mark 0
LayerCount: 2
Fore
SplineSet
106 1218 m 257
 255 1218 l 257
 488 1583 l 257
 220 1583 l 257
 106 1218 l 257
EndSplineSet
EndChar

StartChar: ae
Encoding: 230 230 179
Width: 1734
VWidth: 0
GlyphClass: 2
Flags: HW
PickledData: "(dp1
S'org.robofab.postScriptHintData'
p2
(dp3
s."
AnchorPoint: "top" 890 1074 basechar 0
LayerCount: 2
Fore
SplineSet
112 293 m 256
 112 98 225 -23 420 -23 c 256
 621 -23 734 31 847 130 c 257
 901 29 1017 -23 1186 -23 c 256
 1476 -23 1616 41 1622 353 c 257
 1370 353 l 257
 1366 184 1313 166 1190 166 c 256
 1077 166 1012 203 1012 321 c 258
 1012 514 l 257
 1624 514 l 257
 1624 745 l 258
 1624 961 1513 1097 1187 1097 c 256
 1056 1097 950 1055 878 967 c 257
 831 1056 707 1097 573 1097 c 256
 278 1097 144 953 144 745 c 258
 144 719 l 257
 400 719 l 257
 400 755 l 258
 400 838 430 908 567 908 c 256
 695 908 739 852 739 770 c 256
 739 631 657 640 448 586 c 256
 158 512 112 430 112 293 c 256
515 157 m 256
 424 157 373 208 373 294 c 256
 373 354 399 419 527 447 c 256
 626 470 714 499 739 520 c 257
 739 259 l 257
 689 183 581 157 515 157 c 256
1012 655 m 257
 1012 760 l 258
 1012 874 1084 907 1193 907 c 256
 1302 907 1371 884 1371 765 c 258
 1371 655 l 257
 1012 655 l 257
EndSplineSet
EndChar

StartChar: ampersand
Encoding: 38 38 185
Width: 1526
VWidth: 0
GlyphClass: 2
Flags: HW
PickledData: "(dp1
S'org.robofab.postScriptHintData'
p2
(dp3
s."
LayerCount: 2
Fore
SplineSet
734 -27 m 256
 987 -27 1111 17 1186 103 c 257
 1314 -23 l 257
 1474 150 l 257
 1305 309 l 257
 1323 367 1331 462 1331 549 c 258
 1331 822 l 257
 1096 822 l 257
 1096 531 l 258
 1096 515 1096 514 1095 500 c 257
 638 951 l 257
 547 1046 521 1071 521 1149 c 256
 521 1244 556 1305 759 1305 c 256
 947 1305 1000 1290 1000 1152 c 258
 1000 1110 l 257
 1238 1110 l 257
 1238 1193 l 258
 1238 1429 1101 1506 751 1506 c 256
 390 1506 257 1395 257 1165 c 256
 257 1011 327 922 432 825 c 257
 237 767 148 661 148 460 c 256
 148 108 291 -27 734 -27 c 256
734 195 m 256
 478 195 420 260 420 466 c 256
 420 588 423 668 559 704 c 257
 993 279 l 257
 957 198 843 195 734 195 c 256
EndSplineSet
EndChar

StartChar: approxequal
Encoding: 8776 8776 187
Width: 1024
VWidth: 0
GlyphClass: 2
Flags: HW
PickledData: "(dp1
S'org.robofab.postScriptHintData'
p2
(dp3
s."
LayerCount: 2
Fore
SplineSet
721 738 m 256
 856 738 964 839 964 1027 c 257
 855 1027 l 257
 855 956 822 905 732 905 c 256
 652 905 455 1043 302 1043 c 256
 167 1043 60 943 60 754 c 257
 168 754 l 257
 168 825 201 877 292 877 c 256
 371 877 567 738 721 738 c 256
721 1131 m 256
 856 1131 964 1232 964 1420 c 257
 855 1420 l 257
 855 1349 822 1298 732 1298 c 256
 652 1298 455 1436 302 1436 c 256
 167 1436 60 1336 60 1147 c 257
 168 1147 l 257
 168 1218 201 1270 292 1270 c 256
 371 1270 567 1131 721 1131 c 256
EndSplineSet
EndChar

StartChar: asciicircum
Encoding: 94 94 189
Width: 1257
VWidth: 0
GlyphClass: 2
Flags: HW
PickledData: "(dp1
S'org.robofab.postScriptHintData'
p2
(dp3
s."
LayerCount: 2
Fore
SplineSet
80 511 m 257
 317 511 l 257
 622 1112 l 257
 926 511 l 257
 1153 511 l 257
 745 1283 l 257
 486 1283 l 257
 80 511 l 257
EndSplineSet
EndChar

StartChar: asciitilde
Encoding: 126 126 190
Width: 1024
VWidth: 0
GlyphClass: 2
Flags: HW
PickledData: "(dp1
S'org.robofab.postScriptHintData'
p2
(dp3
s."
LayerCount: 2
Fore
SplineSet
691 1131 m 256
 826 1131 934 1262 934 1450 c 257
 825 1450 l 257
 825 1379 792 1298 702 1298 c 256
 622 1298 485 1466 332 1466 c 256
 197 1466 90 1336 90 1147 c 257
 198 1147 l 257
 198 1218 231 1300 322 1300 c 256
 401 1300 537 1131 691 1131 c 256
EndSplineSet
EndChar

StartChar: asterisk
Encoding: 42 42 191
Width: 998
VWidth: 0
GlyphClass: 2
Flags: HW
PickledData: "(dp1
S'org.robofab.postScriptHintData'
p2
(dp3
s."
LayerCount: 2
Fore
SplineSet
410 599 m 257
 588 599 l 257
 559 912 l 257
 806 722 l 257
 901 875 l 257
 621 1017 l 257
 912 1134 l 257
 831 1295 l 257
 558 1121 l 257
 588 1446 l 257
 410 1446 l 257
 438 1133 l 257
 191 1323 l 257
 96 1170 l 257
 376 1028 l 257
 86 911 l 257
 166 750 l 257
 439 924 l 257
 410 599 l 257
EndSplineSet
EndChar

StartChar: at
Encoding: 64 64 192
Width: 2048
VWidth: 0
GlyphClass: 2
Flags: HW
PickledData: "(dp1
S'org.robofab.postScriptHintData'
p2
(dp3
s."
LayerCount: 2
Fore
SplineSet
1084 -477 m 256
 1328 -477 1582 -423 1765 -375 c 257
 1707 -172 l 257
 1545 -206 1323 -256 1109 -256 c 256
 765 -256 495 -125 495 363 c 258
 495 741 l 258
 495 1246 687 1320 1060 1320 c 256
 1431 1320 1491 1186 1491 895 c 257
 1491 895 1181 819 1141 809 c 256
 777 713 729 583 729 428 c 256
 729 185 915 53 1136 53 c 256
 1294 53 1452 119 1516 208 c 257
 1553 127 1587 59 1742 59 c 258
 1848 59 l 257
 1868 259 l 257
 1772 259 1761 295 1761 394 c 258
 1759 863 l 257
 1759 1318 1594 1523 1014 1523 c 256
 459 1523 240 1260 240 770 c 258
 240 348 l 258
 240 -272 597 -477 1084 -477 c 256
1186 267 m 256
 1075 267 983 313 983 445 c 256
 983 552 1027 617 1209 666 c 256
 1256 678 1487 741 1492 744 c 257
 1492 377 l 257
 1482 325 1308 267 1186 267 c 256
EndSplineSet
EndChar

StartChar: b
Encoding: 98 98 194
Width: 1232
VWidth: 0
GlyphClass: 2
Flags: HW
PickledData: "(dp1
S'org.robofab.postScriptHintData'
p2
(dp3
s."
AnchorPoint: "top" 702 1074 basechar 0
LayerCount: 2
Fore
SplineSet
665 -23 m 256
 926 -23 1092 120 1092 329 c 258
 1092 753 l 258
 1092 934 984 1097 682 1097 c 256
 592 1097 507 1074 442 1040 c 257
 442 1516 l 257
 170 1516 l 257
 170 0 l 257
 357 0 l 257
 384 65 l 257
 453 19 548 -23 665 -23 c 256
620 168 m 256
 547 168 483 185 442 216 c 257
 442 857 l 257
 463 867 535 907 633 907 c 256
 754 907 820 865 820 758 c 258
 820 323 l 258
 820 215 737 168 620 168 c 256
EndSplineSet
EndChar

StartChar: backslash
Encoding: 92 92 195
Width: 1024
VWidth: 0
GlyphClass: 2
Flags: HW
PickledData: "(dp1
S'org.robofab.postScriptHintData'
p2
(dp3
s."
LayerCount: 2
Fore
SplineSet
675 0 m 257
 918 0 l 257
 349 1516 l 257
 106 1516 l 257
 675 0 l 257
EndSplineSet
EndChar

StartChar: bar
Encoding: 124 124 196
Width: 768
VWidth: 0
GlyphClass: 2
Flags: HW
PickledData: "(dp1
S'org.robofab.postScriptHintData'
p2
(dp3
s."
LayerCount: 2
Fore
SplineSet
262 -126 m 257
 506 -126 l 257
 506 1608 l 257
 262 1608 l 257
 262 -126 l 257
EndSplineSet
EndChar

StartChar: braceleft
Encoding: 123 123 198
Width: 992
VWidth: 0
GlyphClass: 2
Flags: HW
PickledData: "(dp1
S'org.robofab.postScriptHintData'
p2
(dp3
s."
LayerCount: 2
Fore
SplineSet
846 -128 m 257
 846 -70 846 -12 846 46 c 257
 673 46 659 101 659 252 c 258
 659 369 l 258
 659 569 616 680 498 722 c 257
 611 758 658 896 658 1080 c 258
 658 1210 l 258
 658 1349 671 1382 846 1382 c 257
 846 1440 846 1498 846 1556 c 257
 489 1556 379 1515 379 1139 c 258
 379 1036 l 258
 379 873 335 833 188 833 c 257
 188 595 l 257
 334 595 379 572 379 409 c 258
 379 322 l 258
 379 -11 471 -128 846 -128 c 257
EndSplineSet
EndChar

StartChar: braceright
Encoding: 125 125 199
Width: 991
VWidth: 0
GlyphClass: 2
Flags: HW
PickledData: "(dp1
S'org.robofab.postScriptHintData'
p2
(dp3
s."
LayerCount: 2
Fore
SplineSet
177 -128 m 257
 552 -128 644 -11 644 322 c 258
 644 409 l 258
 644 572 689 595 835 595 c 257
 835 833 l 257
 688 833 644 873 644 1036 c 258
 644 1139 l 258
 644 1515 534 1556 177 1556 c 257
 177 1498 177 1440 177 1382 c 257
 352 1382 365 1349 365 1210 c 258
 365 1080 l 258
 365 896 412 758 525 722 c 257
 407 680 364 569 364 369 c 258
 364 252 l 258
 364 101 350 46 177 46 c 257
 177 -12 177 -70 177 -128 c 257
EndSplineSet
EndChar

StartChar: bracketleft
Encoding: 91 91 200
Width: 842
VWidth: 0
GlyphClass: 2
Flags: HW
PickledData: "(dp1
S'org.robofab.postScriptHintData'
p2
(dp3
s."
LayerCount: 2
Fore
SplineSet
212 -89 m 257
 694 -89 l 257
 694 72 l 257
 485 72 l 257
 485 1431 l 257
 694 1431 l 257
 694 1592 l 257
 212 1592 l 257
 212 -89 l 257
EndSplineSet
EndChar

StartChar: bracketright
Encoding: 93 93 201
Width: 842
VWidth: 0
GlyphClass: 2
Flags: HW
PickledData: "(dp1
S'org.robofab.postScriptHintData'
p2
(dp3
s."
LayerCount: 2
Fore
SplineSet
146 -89 m 257
 628 -89 l 257
 628 1592 l 257
 146 1592 l 257
 146 1431 l 257
 356 1431 l 257
 356 72 l 257
 146 72 l 257
 146 -89 l 257
EndSplineSet
EndChar

StartChar: breve
Encoding: 728 728 202
Width: 512
VWidth: 0
GlyphClass: 4
Flags: HW
PickledData: "(dp1
S'org.robofab.postScriptHintData'
p2
(dp3
s."
AnchorPoint: "top" 267 1074 mark 0
LayerCount: 2
Fore
SplineSet
256 1217 m 256
 384 1217 512 1276 512 1476 c 257
 368 1476 l 257
 368 1400 312 1376 256 1376 c 256
 200 1376 144 1400 144 1476 c 257
 0 1476 l 257
 0 1276 128 1217 256 1217 c 256
EndSplineSet
EndChar

StartChar: brokenbar
Encoding: 166 166 203
Width: 769
VWidth: 0
GlyphClass: 2
Flags: HW
PickledData: "(dp1
S'org.robofab.postScriptHintData'
p2
(dp3
s."
LayerCount: 2
Fore
SplineSet
280 -120 m 257
 489 -120 l 257
 489 590 l 257
 280 590 l 257
 280 -120 l 257
280 800 m 257
 489 800 l 257
 489 1476 l 257
 280 1476 l 257
 280 800 l 257
EndSplineSet
EndChar

StartChar: bullet
Encoding: 8226 8226 204
Width: 1024
VWidth: 0
GlyphClass: 2
Flags: HW
PickledData: "(dp1
S'org.robofab.postScriptHintData'
p2
(dp3
s."
LayerCount: 2
Fore
SplineSet
511 390 m 256
 704 390 832 524 832 707 c 256
 832 891 704 1025 512 1025 c 256
 319 1025 192 891 192 707 c 256
 192 523 319 390 511 390 c 256
EndSplineSet
EndChar

StartChar: uni2219
Encoding: 8729 8729 205
Width: 459
VWidth: 0
GlyphClass: 2
Flags: HW
PickledData: "(dp1
S'org.robofab.postScriptHintData'
p2
(dp3
s."
LayerCount: 2
Fore
SplineSet
117 1251 m 257
 365 1251 l 257
 365 1498 l 257
 117 1498 l 257
 117 1251 l 257
EndSplineSet
EndChar

StartChar: c
Encoding: 99 99 206
Width: 1158
VWidth: 0
GlyphClass: 2
Flags: HW
PickledData: "(dp1
S'org.robofab.postScriptHintData'
p2
(dp3
s."
AnchorPoint: "top" 612 1074 basechar 0
AnchorPoint: "bot" 591 0 basechar 0
LayerCount: 2
Fore
SplineSet
589 -23 m 256
 934 -23 1021 77 1027 380 c 257
 773 380 l 257
 773 197 740 168 595 168 c 256
 471 168 412 207 412 322 c 258
 412 756 l 258
 412 867 479 907 595 907 c 256
 738 907 771 874 772 679 c 257
 1028 699 l 257
 1028 1007 877 1097 585 1097 c 256
 304 1097 140 972 140 757 c 258
 140 327 l 258
 140 140 222 -23 589 -23 c 256
EndSplineSet
EndChar

StartChar: caron
Encoding: 711 711 208
Width: 512
VWidth: 0
GlyphClass: 4
Flags: HW
PickledData: "(dp1
S'org.robofab.postScriptHintData'
p2
(dp3
s."
AnchorPoint: "top" 267 1074 mark 0
LayerCount: 2
Fore
SplineSet
380 1216 m 257
 590 1514 l 257
 365 1514 l 257
 267 1371 l 257
 161 1514 l 257
 -69 1514 l 257
 155 1216 l 257
 380 1216 l 257
EndSplineSet
EndChar

StartChar: caron.alt
Encoding: 65537 -1 209
Width: 600
VWidth: 0
GlyphClass: 4
Flags: HW
PickledData: "(dp1
S'org.robofab.postScriptHintData'
p2
(dp3
s."
AnchorPoint: "caron.alt" 382 1074 mark 0
LayerCount: 2
Fore
SplineSet
708 1193 m 257
 770 1250 903 1434 903 1635 c 258
 903 1858 l 257
 582 1858 l 257
 582 1582 l 257
 747 1582 l 257
 747 1444 652 1298 601 1240 c 257
 708 1193 l 257
EndSplineSet
EndChar

StartChar: cedilla
Encoding: 184 184 214
Width: 512
VWidth: 0
GlyphClass: 4
Flags: HW
PickledData: "(dp1
S'org.robofab.postScriptHintData'
p2
(dp3
s."
AnchorPoint: "bot" 195 0 mark 0
LayerCount: 2
Fore
SplineSet
215 -484 m 256
 379 -484 460 -395 460 -301 c 256
 460 -211 416 -117 269 -91 c 257
 263 10 l 257
 157 10 l 257
 157 -162 l 257
 255 -165 302 -225 302 -279 c 256
 302 -330 263 -365 185 -365 c 256
 166 -365 144 -363 120 -358 c 257
 120 -475 l 257
 155 -482 186 -484 215 -484 c 256
EndSplineSet
EndChar

StartChar: cent
Encoding: 162 162 215
Width: 1107
VWidth: 0
GlyphClass: 2
Flags: HW
PickledData: "(dp1
S'org.robofab.postScriptHintData'
p2
(dp3
s."
LayerCount: 2
Fore
SplineSet
538 1006 m 257
 631 1006 l 257
 631 1291 l 257
 538 1291 l 257
 538 1006 l 257
538 -214 m 257
 631 -214 l 257
 631 71 l 257
 538 71 l 257
 538 -214 l 257
EndSplineSet
Refer: 206 99 N 1 0 0 1 0 0 2
EndChar

StartChar: circumflex
Encoding: 710 710 216
Width: 512
VWidth: 0
GlyphClass: 4
Flags: HW
PickledData: "(dp1
S'org.robofab.postScriptHintData'
p2
(dp3
s."
AnchorPoint: "top" 267 1074 mark 0
LayerCount: 2
Fore
SplineSet
-69 1216 m 257
 161 1216 l 257
 267 1359 l 257
 365 1216 l 257
 590 1216 l 257
 380 1514 l 257
 155 1514 l 257
 -69 1216 l 257
EndSplineSet
EndChar

StartChar: comma
Encoding: 44 44 218
Width: 768
VWidth: 0
GlyphClass: 2
Flags: HW
PickledData: "(dp1
S'org.robofab.postScriptHintData'
p2
(dp3
s."
LayerCount: 2
Fore
SplineSet
349 -389 m 257
 411 -333 545 -148 545 53 c 258
 545 276 l 257
 223 276 l 257
 223 0 l 257
 388 0 l 257
 388 -138 293 -285 242 -343 c 257
 349 -389 l 257
EndSplineSet
EndChar

StartChar: copyright
Encoding: 169 169 219
Width: 1776
VWidth: 0
GlyphClass: 2
Flags: HW
PickledData: "(dp1
S'org.robofab.postScriptHintData'
p2
(dp3
s."
LayerCount: 2
Fore
SplineSet
899 287 m 256
 1175 287 1224 422 1224 598 c 258
 1224 632 l 257
 1108 632 l 257
 1108 571 l 258
 1108 419 1052 376 899 376 c 256
 747 376 667 419 667 571 c 258
 667 890 l 258
 667 1042 747 1091 898 1091 c 256
 1050 1091 1108 1042 1108 890 c 258
 1108 826 l 257
 1224 836 l 257
 1224 861 l 258
 1224 1043 1175 1182 898 1182 c 256
 610 1182 547 1050 547 868 c 258
 547 590 l 258
 547 411 612 287 899 287 c 256
890 82 m 256
 526 82 261 357 261 722 c 256
 261 1086 526 1361 890 1361 c 256
 1256 1361 1518 1086 1518 722 c 256
 1518 357 1256 82 890 82 c 256
888 -14 m 256
 1304 -14 1624 303 1624 722 c 256
 1624 1139 1304 1456 888 1456 c 256
 475 1456 152 1139 152 722 c 256
 152 303 475 -14 888 -14 c 256
EndSplineSet
EndChar

StartChar: currency
Encoding: 164 164 220
Width: 1126
VWidth: 0
GlyphClass: 2
Flags: HW
PickledData: "(dp1
S'org.robofab.postScriptHintData'
p2
(dp3
s."
LayerCount: 2
Fore
SplineSet
560 381 m 256
 669 381 754 423 811 485 c 257
 950 384 l 257
 1002 465 l 257
 864 563 l 257
 888 611 899 667 899 723 c 256
 899 779 887 836 862 886 c 257
 999 986 l 257
 952 1067 l 257
 809 964 l 257
 752 1025 669 1064 560 1064 c 256
 452 1064 368 1026 311 968 c 257
 177 1067 l 257
 124 987 l 257
 256 892 l 257
 230 840 216 782 216 723 c 256
 216 665 229 608 254 559 c 257
 126 467 l 257
 174 383 l 257
 309 480 l 257
 366 420 451 381 560 381 c 256
560 528 m 256
 429 528 368 622 368 723 c 256
 368 824 429 918 560 918 c 256
 689 918 748 824 748 723 c 256
 748 622 689 528 560 528 c 256
EndSplineSet
EndChar

StartChar: d
Encoding: 100 100 221
Width: 1228
VWidth: 0
GlyphClass: 2
Flags: HW
PickledData: "(dp1
S'org.robofab.postScriptHintData'
p2
(dp3
s."
AnchorPoint: "top" 548 1074 basechar 0
AnchorPoint: "caron.alt" 959 1074 basechar 0
AnchorPoint: "mid" 926 1313 basechar 0
LayerCount: 2
Fore
SplineSet
567 -23 m 256
 677 -23 775 14 845 63 c 257
 874 0 l 257
 1058 0 l 257
 1058 1516 l 257
 786 1516 l 257
 786 1059 l 257
 723 1082 647 1097 586 1097 c 256
 273 1097 140 951 140 753 c 258
 140 324 l 258
 140 108 276 -23 567 -23 c 256
599 168 m 256
 479 168 412 211 412 320 c 258
 412 759 l 258
 412 868 485 907 609 907 c 256
 685 907 750 887 786 870 c 257
 786 211 l 257
 744 186 674 168 599 168 c 256
EndSplineSet
EndChar

StartChar: dagger
Encoding: 8224 8224 222
Width: 1024
VWidth: 0
GlyphClass: 2
Flags: HW
PickledData: "(dp1
S'org.robofab.postScriptHintData'
p2
(dp3
s."
LayerCount: 2
Fore
SplineSet
409 0 m 257
 614 0 l 257
 614 857 l 257
 865 857 l 257
 865 1013 l 257
 614 1013 l 257
 614 1324 l 257
 409 1324 l 257
 409 1013 l 257
 159 1013 l 257
 159 857 l 257
 409 857 l 257
 409 0 l 257
EndSplineSet
EndChar

StartChar: daggerdbl
Encoding: 8225 8225 223
Width: 1025
VWidth: 0
GlyphClass: 2
Flags: HW
PickledData: "(dp1
S'org.robofab.postScriptHintData'
p2
(dp3
s."
LayerCount: 2
Fore
SplineSet
409 0 m 257
 614 0 l 257
 614 383 l 257
 806 383 l 257
 806 569 l 257
 614 569 l 257
 614 873 l 257
 806 873 l 257
 806 1059 l 257
 614 1059 l 257
 614 1324 l 257
 409 1324 l 257
 409 1059 l 257
 219 1059 l 257
 219 873 l 257
 409 873 l 257
 409 569 l 257
 219 569 l 257
 219 383 l 257
 409 383 l 257
 409 0 l 257
EndSplineSet
EndChar

StartChar: degree
Encoding: 176 176 227
Width: 974
VWidth: 0
GlyphClass: 2
Flags: HW
PickledData: "(dp1
S'org.robofab.postScriptHintData'
p2
(dp3
s."
LayerCount: 2
Fore
SplineSet
489 992 m 256
 351 992 288 1082 288 1181 c 256
 288 1278 351 1370 489 1370 c 256
 625 1370 688 1278 688 1181 c 256
 688 1082 624 992 489 992 c 256
489 850 m 256
 725 850 846 1010 846 1180 c 256
 846 1351 725 1511 489 1511 c 256
 250 1511 128 1351 128 1180 c 256
 128 1010 249 850 489 850 c 256
EndSplineSet
EndChar

StartChar: dieresis
Encoding: 168 168 228
Width: 967
VWidth: 0
GlyphClass: 4
Flags: HW
PickledData: "(dp1
S'org.robofab.postScriptHintData'
p2
(dp3
s."
AnchorPoint: "top" 495 1074 mark 0
LayerCount: 2
Fore
SplineSet
115 1244 m 257
 379 1244 l 257
 379 1477 l 257
 115 1477 l 257
 115 1244 l 257
624 1244 m 257
 889 1244 l 257
 889 1477 l 257
 624 1477 l 257
 624 1244 l 257
EndSplineSet
EndChar

StartChar: divide
Encoding: 247 247 229
Width: 1004
VWidth: 0
GlyphClass: 2
Flags: HW
PickledData: "(dp1
S'org.robofab.postScriptHintData'
p2
(dp3
s."
LayerCount: 2
Fore
SplineSet
389 94 m 257
 617 94 l 257
 617 323 l 257
 389 323 l 257
 389 94 l 257
112 479 m 257
 892 479 l 257
 892 642 l 257
 112 642 l 257
 112 479 l 257
389 792 m 257
 617 792 l 257
 617 1021 l 257
 389 1021 l 257
 389 792 l 257
EndSplineSet
EndChar

StartChar: dollar
Encoding: 36 36 230
Width: 1281
VWidth: 0
GlyphClass: 2
Flags: HW
PickledData: "(dp1
S'org.robofab.postScriptHintData'
p2
(dp3
s."
LayerCount: 2
Fore
SplineSet
615 -312 m 257
 725 -312 l 257
 725 1758 l 257
 615 1758 l 257
 615 -312 l 257
EndSplineSet
Refer: 123 83 N 1 0 0 1 0 0 2
EndChar

StartChar: dotaccent
Encoding: 729 729 231
Width: 489
VWidth: 0
GlyphClass: 4
Flags: HW
PickledData: "(dp1
S'org.robofab.postScriptHintData'
p2
(dp3
s."
AnchorPoint: "top" 257 1074 mark 0
LayerCount: 2
Fore
SplineSet
117 1251 m 257
 385 1251 l 257
 385 1505 l 257
 117 1505 l 257
 117 1251 l 257
EndSplineSet
EndChar

StartChar: dotlessi
Encoding: 305 305 232
Width: 570
VWidth: 0
GlyphClass: 2
Flags: HW
PickledData: "(dp1
S'org.robofab.postScriptHintData'
p2
(dp3
s."
AnchorPoint: "top" 303 1074 basechar 0
AnchorPoint: "ogonek" 309 0 basechar 0
LayerCount: 2
Fore
SplineSet
170 0 m 257
 421 0 l 257
 421 1074 l 257
 170 1074 l 257
 170 0 l 257
EndSplineSet
EndChar

StartChar: uni0237
Encoding: 567 567 233
Width: 673
VWidth: 0
GlyphClass: 2
Flags: HW
PickledData: "(dp1
S'org.robofab.postScriptHintData'
p2
(dp3
s."
AnchorPoint: "top" 369 1074 basechar 0
LayerCount: 2
Fore
SplineSet
16 -329 m 257
 125 -329 l 258
 392 -329 499 -183 499 30 c 258
 499 1074 l 257
 226 1074 l 257
 226 43 l 258
 226 -39 195 -135 55 -135 c 258
 10 -135 l 257
 16 -329 l 257
EndSplineSet
EndChar

StartChar: e
Encoding: 101 101 236
Width: 1181
VWidth: 0
GlyphClass: 2
Flags: HW
PickledData: "(dp1
S'org.robofab.postScriptHintData'
p2
(dp3
s."
AnchorPoint: "top" 618 1074 basechar 0
AnchorPoint: "ogonek" 704 0 basechar 0
AnchorPoint: "bot" 602 0 basechar 0
LayerCount: 2
Fore
SplineSet
602 -23 m 256
 882 -23 1046 32 1054 330 c 257
 802 330 l 257
 797 168 732 166 607 166 c 256
 477 166 412 183 412 310 c 258
 412 485 l 257
 1055 485 l 257
 1055 745 l 258
 1055 961 929 1097 598 1097 c 256
 319 1097 140 974 140 755 c 258
 140 336 l 258
 140 60 339 -23 602 -23 c 256
412 651 m 257
 412 772 l 258
 412 886 496 907 605 907 c 256
 714 907 798 896 798 777 c 258
 798 651 l 257
 412 651 l 257
EndSplineSet
EndChar

StartChar: eight
Encoding: 56 56 245
Width: 1379
VWidth: 0
GlyphClass: 2
Flags: HW
PickledData: "(dp1
S'org.robofab.postScriptHintData'
p2
(dp3
s."
LayerCount: 2
Fore
SplineSet
687 -20 m 256
 1040 -20 1236 119 1236 374 c 256
 1236 551 1140 697 904 783 c 257
 1110 848 1199 982 1199 1128 c 256
 1199 1333 1061 1496 689 1496 c 256
 320 1496 171 1335 171 1134 c 256
 171 975 259 847 457 783 c 257
 261 697 144 571 144 372 c 256
 144 126 345 -20 687 -20 c 256
689 193 m 256
 482 193 417 282 417 391 c 256
 417 502 504 592 688 672 c 257
 873 592 959 502 959 391 c 256
 959 283 895 193 689 193 c 256
688 869 m 257
 519 950 451 1010 451 1119 c 256
 451 1217 505 1289 689 1289 c 256
 874 1289 924 1213 924 1119 c 256
 924 1015 850 950 688 869 c 257
EndSplineSet
EndChar

StartChar: emdash
Encoding: 8212 8212 249
Width: 961
VWidth: 0
GlyphClass: 2
Flags: HW
PickledData: "(dp1
S'org.robofab.postScriptHintData'
p2
(dp3
s."
LayerCount: 2
Fore
SplineSet
3 383 m 257
 957 383 l 257
 957 556 l 257
 3 556 l 257
 3 383 l 257
EndSplineSet
EndChar

StartChar: emptyset
Encoding: 8709 8709 250
Width: 1552
VWidth: 0
GlyphClass: 2
Flags: HW
PickledData: "(dp1
S'org.robofab.postScriptHintData'
p2
(dp3
s."
LayerCount: 2
Fore
SplineSet
778 206 m 256
 507 206 310 410 310 682 c 256
 310 952 507 1157 778 1157 c 256
 1050 1157 1244 952 1244 682 c 256
 1244 410 1050 206 778 206 c 256
776 66 m 256
 1124 66 1392 331 1392 682 c 256
 1392 1031 1124 1296 776 1296 c 256
 430 1296 160 1031 160 682 c 256
 160 331 430 66 776 66 c 256
199 70 m 257
 286 -6 l 257
 1363 1277 l 257
 1276 1353 l 257
 199 70 l 257
EndSplineSet
EndChar

StartChar: endash
Encoding: 8211 8211 251
Width: 716
VWidth: 0
GlyphClass: 2
Flags: HW
PickledData: "(dp1
S'org.robofab.postScriptHintData'
p2
(dp3
s."
LayerCount: 2
Fore
SplineSet
128 446 m 257
 588 446 l 257
 588 612 l 257
 128 612 l 257
 128 446 l 257
EndSplineSet
EndChar

StartChar: eng
Encoding: 331 331 252
Width: 1254
VWidth: 0
GlyphClass: 2
Flags: HW
PickledData: "(dp1
S'org.robofab.postScriptHintData'
p2
(dp3
s."
LayerCount: 2
Fore
SplineSet
553 -365 m 257
 995 -365 1102 -202 1102 179 c 258
 1102 794 l 258
 1102 975 962 1097 756 1097 c 256
 607 1097 479 1030 433 948 c 257
 433 1074 l 257
 160 1074 l 257
 160 0 l 257
 433 0 l 257
 433 758 l 258
 433 863 543 907 642 907 c 256
 726 907 829 881 829 768 c 258
 829 172 l 258
 829 -140 769 -153 525 -175 c 257
 553 -365 l 257
EndSplineSet
EndChar

StartChar: equal
Encoding: 61 61 254
Width: 880
VWidth: 0
GlyphClass: 2
Flags: HW
PickledData: "(dp1
S'org.robofab.postScriptHintData'
p2
(dp3
s."
LayerCount: 2
Fore
SplineSet
112 371 m 257
 768 371 l 257
 768 544 l 257
 112 544 l 257
 112 371 l 257
112 740 m 257
 768 740 l 257
 768 913 l 257
 112 913 l 257
 112 740 l 257
EndSplineSet
EndChar

StartChar: estimated
Encoding: 8494 8494 255
Width: 1205
VWidth: 0
GlyphClass: 2
Flags: HW
PickledData: "(dp1
S'org.robofab.postScriptHintData'
p2
(dp3
s."
LayerCount: 2
Fore
SplineSet
637 1173 m 256
 740 1173 842 1134 899 1054 c 257
 899 808 l 257
 365 808 l 257
 365 1055 l 257
 427 1133 533 1173 637 1173 c 256
95 730 m 256
 95 413 282 178 662 178 c 256
 868 178 1002 267 1101 385 c 257
 1017 464 l 257
 924 363 813 304 661 304 c 256
 530 304 443 344 372 425 c 257
 372 701 l 257
 1109 701 l 257
 1109 1058 955 1280 637 1280 c 256
 317 1280 95 1041 95 730 c 256
EndSplineSet
EndChar

StartChar: eth
Encoding: 240 240 256
Width: 1312
VWidth: 0
GlyphClass: 2
Flags: HW
PickledData: "(dp1
S'org.robofab.postScriptHintData'
p2
(dp3
s."
LayerCount: 2
Fore
SplineSet
677 -23 m 256
 1060 -23 1180 195 1180 460 c 258
 1180 536 l 258
 1180 1137 933 1376 684 1448 c 257
 758 1598 l 257
 638 1655 l 257
 553 1485 l 257
 479 1501 408 1505 347 1505 c 256
 314 1505 283 1504 257 1502 c 257
 233 1335 l 257
 302 1334 386 1333 471 1318 c 257
 394 1167 l 257
 513 1110 l 257
 602 1284 l 257
 720 1250 841 1138 864 921 c 257
 837 944 687 975 621 975 c 256
 358 975 166 846 166 618 c 258
 166 342 l 258
 166 118 326 -23 677 -23 c 256
677 178 m 256
 510 178 444 221 444 333 c 258
 444 612 l 258
 444 743 531 793 677 793 c 256
 737 793 844 766 887 736 c 257
 902 654 910 497 910 428 c 256
 910 258 890 178 677 178 c 256
EndSplineSet
EndChar

StartChar: exclam
Encoding: 33 33 258
Width: 648
VWidth: 0
GlyphClass: 2
Flags: HW
PickledData: "(dp1
S'org.robofab.postScriptHintData'
p2
(dp3
s."
LayerCount: 2
Fore
SplineSet
192 0 m 257
 442 0 l 257
 442 245 l 257
 192 245 l 257
 192 0 l 257
280 410 m 257
 356 410 l 257
 356 410 456 1359 456 1477 c 257
 197 1477 l 257
 197 1359 280 410 280 410 c 257
EndSplineSet
EndChar

StartChar: f
Encoding: 102 102 260
Width: 778
VWidth: 0
GlyphClass: 2
Flags: HW
PickledData: "(dp1
S'org.robofab.postScriptHintData'
p2
(dp3
s."
AnchorPoint: "top" 422 1476 basechar 0
LayerCount: 2
Fore
SplineSet
229 0 m 257
 501 0 l 257
 501 901 l 257
 715 901 l 257
 715 1074 l 257
 501 1074 l 257
 501 1186 l 258
 501 1258 522 1327 640 1327 c 258
 724 1327 l 257
 717 1516 l 257
 591 1516 l 258
 336 1516 229 1380 229 1125 c 258
 229 1074 l 257
 86 1074 l 257
 86 901 l 257
 229 901 l 257
 229 0 l 257
EndSplineSet
EndChar

StartChar: five
Encoding: 53 53 263
Width: 1379
VWidth: 0
GlyphClass: 2
Flags: HW
PickledData: "(dp1
S'org.robofab.postScriptHintData'
p2
(dp3
s."
LayerCount: 2
Fore
SplineSet
717 -20 m 256
 1060 -20 1274 179 1274 474 c 256
 1274 743 1093 957 795 957 c 256
 696 957 567 935 502 867 c 257
 543 1230 l 257
 1161 1230 l 257
 1161 1476 l 257
 319 1476 l 257
 238 711 l 257
 452 604 l 257
 545 692 662 707 742 707 c 256
 879 707 984 618 984 473 c 256
 984 274 865 203 701 203 c 256
 590 203 429 227 265 325 c 257
 186 126 l 257
 271 64 490 -20 717 -20 c 256
EndSplineSet
EndChar

StartChar: florin
Encoding: 402 402 266
Width: 1024
VWidth: 0
GlyphClass: 2
Flags: HW
PickledData: "(dp1
S'org.robofab.postScriptHintData'
p2
(dp3
s."
LayerCount: 2
Fore
SplineSet
366 -205 m 256
 594 -205 615 -67 615 101 c 258
 615 843 l 257
 787 843 l 257
 787 962 l 257
 615 962 l 257
 615 1207 l 258
 615 1281 627 1347 725 1347 c 256
 739 1347 762 1342 783 1341 c 257
 783 1488 l 257
 730 1494 698 1496 661 1496 c 256
 430 1496 410 1358 410 1181 c 258
 410 962 l 257
 263 962 l 257
 263 843 l 257
 410 843 l 257
 410 74 l 258
 410 1 396 -56 306 -56 c 256
 291 -56 265 -53 241 -49 c 257
 241 -196 l 257
 295 -203 328 -205 366 -205 c 256
EndSplineSet
EndChar

StartChar: foundryicon
Encoding: 65539 -1 267
Width: 1347
VWidth: 0
GlyphClass: 2
Flags: HW
PickledData: "(dp1
S'org.robofab.postScriptHintData'
p2
(dp3
s."
LayerCount: 2
Fore
SplineSet
485 405 m 257
 485 672 l 257
 591 672 l 257
 761 523 l 257
 761 672 l 257
 867 672 l 257
 867 405 l 257
 761 405 l 257
 591 552 l 257
 591 405 l 257
 485 405 l 257
280 2 m 257
 669 278 l 257
 1066 2 l 257
 922 461 l 257
 1313 755 l 257
 828 755 l 257
 669 1215 l 257
 519 755 l 257
 34 755 l 257
 423 461 l 257
 280 2 l 257
EndSplineSet
EndChar

StartChar: four
Encoding: 52 52 268
Width: 1379
VWidth: 0
GlyphClass: 2
Flags: HW
PickledData: "(dp1
S'org.robofab.postScriptHintData'
p2
(dp3
s."
LayerCount: 2
Fore
SplineSet
839 0 m 257
 1076 0 l 257
 1076 282 l 257
 1296 282 l 257
 1296 528 l 257
 1076 528 l 257
 1076 862 l 257
 839 862 l 257
 839 528 l 257
 494 528 l 257
 924 1476 l 257
 619 1476 l 257
 170 531 l 257
 170 282 l 257
 839 282 l 257
 839 0 l 257
EndSplineSet
Substitution2: "supsSuperscriptlookup11 subtable" uni2074
EndChar

StartChar: uni2074
Encoding: 8308 8308 269
Width: 1116
VWidth: 0
GlyphClass: 2
Flags: HW
PickledData: "(dp1
S'org.robofab.postScriptHintData'
p2
(dp3
s."
LayerCount: 2
Fore
SplineSet
620 616 m 257
 775 616 l 257
 775 813 l 257
 920 813 l 257
 920 973 l 257
 775 973 l 257
 775 1183 l 257
 620 1183 l 257
 620 973 l 257
 413 973 l 257
 646 1566 l 257
 435 1566 l 257
 180 975 l 257
 180 813 l 257
 620 813 l 257
 620 616 l 257
EndSplineSet
EndChar

StartChar: fraction
Encoding: 8260 8260 270
Width: 919
VWidth: 0
GlyphClass: 2
Flags: HW
PickledData: "(dp1
S'org.robofab.postScriptHintData'
p2
(dp3
s."
LayerCount: 2
Fore
SplineSet
55 0 m 257
 298 0 l 257
 865 1516 l 257
 622 1516 l 257
 55 0 l 257
EndSplineSet
EndChar

StartChar: g
Encoding: 103 103 271
Width: 1243
VWidth: 0
GlyphClass: 2
Flags: HW
PickledData: "(dp1
S'org.robofab.postScriptHintData'
p2
(dp3
s."
AnchorPoint: "top" 578 1074 basechar 0
LayerCount: 2
Fore
SplineSet
590 -441 m 256
 935 -441 1075 -277 1075 -12 c 258
 1075 1075 l 257
 873 1075 l 257
 850 997 l 257
 783 1052 667 1097 549 1097 c 256
 246 1097 140 935 140 751 c 258
 140 366 l 258
 140 155 300 32 559 32 c 256
 641 32 739 50 803 88 c 257
 803 -30 l 258
 803 -178 736 -242 580 -242 c 256
 497 -242 392 -228 291 -200 c 257
 235 -385 l 257
 310 -421 457 -441 590 -441 c 256
604 213 m 256
 491 213 412 248 412 356 c 258
 412 757 l 258
 412 865 480 907 604 907 c 256
 727 907 803 860 803 832 c 258
 803 261 l 257
 766 234 696 213 604 213 c 256
EndSplineSet
EndChar

StartChar: germandbls
Encoding: 223 223 278
Width: 1286
VWidth: 0
GlyphClass: 2
Flags: HW
PickledData: "(dp1
S'org.robofab.postScriptHintData'
p2
(dp3
s."
LayerCount: 2
Fore
SplineSet
140 0 m 257
 450 0 l 257
 450 1129 l 258
 450 1244 488 1318 633 1318 c 256
 813 1318 836 1207 836 1110 c 256
 836 1001 800 893 618 893 c 257
 618 703 l 257
 822 683 923 649 923 422 c 256
 923 264 854 169 604 169 c 257
 622 -20 l 257
 1051 -20 1212 156 1212 400 c 256
 1212 547 1166 759 879 819 c 257
 1043 864 1115 990 1115 1122 c 256
 1115 1336 986 1507 613 1507 c 256
 294 1507 140 1350 140 1118 c 258
 140 0 l 257
EndSplineSet
EndChar

StartChar: grave
Encoding: 96 96 279
Width: 556
VWidth: 0
GlyphClass: 4
Flags: HW
PickledData: "(dp1
S'org.robofab.postScriptHintData'
p2
(dp3
s."
AnchorPoint: "top" 397 1074 mark 0
LayerCount: 2
Fore
SplineSet
76 1583 m 257
 309 1218 l 257
 458 1218 l 257
 344 1583 l 257
 76 1583 l 257
EndSplineSet
EndChar

StartChar: greater
Encoding: 62 62 280
Width: 1024
VWidth: 0
GlyphClass: 2
Flags: HW
PickledData: "(dp1
S'org.robofab.postScriptHintData'
p2
(dp3
s."
LayerCount: 2
Fore
SplineSet
152 31 m 257
 896 446 l 257
 896 665 l 257
 152 1081 l 257
 152 848 l 257
 715 556 l 257
 152 260 l 257
 152 31 l 257
EndSplineSet
EndChar

StartChar: greaterequal
Encoding: 8805 8805 281
Width: 1250
VWidth: 0
GlyphClass: 2
Flags: HW
PickledData: "(dp1
S'org.robofab.postScriptHintData'
p2
(dp3
s."
LayerCount: 2
Fore
SplineSet
245 236 m 257
 988 651 l 257
 988 870 l 257
 245 1286 l 257
 245 1053 l 257
 808 761 l 257
 245 465 l 257
 245 236 l 257
184 0 m 257
 1066 0 l 257
 1066 175 l 257
 184 175 l 257
 184 0 l 257
EndSplineSet
EndChar

StartChar: guillemotleft
Encoding: 171 171 282
Width: 1024
VWidth: 0
GlyphClass: 2
Flags: HW
PickledData: "(dp1
S'org.robofab.postScriptHintData'
p2
(dp3
s."
LayerCount: 2
Fore
SplineSet
347 80 m 257
 487 150 l 257
 280 530 l 257
 487 910 l 257
 340 980 l 257
 67 530 l 257
 347 80 l 257
761 80 m 257
 899 150 l 257
 694 530 l 257
 899 910 l 257
 754 980 l 257
 481 530 l 257
 761 80 l 257
EndSplineSet
EndChar

StartChar: guillemotright
Encoding: 187 187 283
Width: 1024
VWidth: 0
GlyphClass: 2
Flags: HW
PickledData: "(dp1
S'org.robofab.postScriptHintData'
p2
(dp3
s."
LayerCount: 2
Fore
SplineSet
299 80 m 257
 572 530 l 257
 292 980 l 257
 154 910 l 257
 359 530 l 257
 154 150 l 257
 299 80 l 257
713 80 m 257
 986 530 l 257
 706 980 l 257
 566 910 l 257
 773 530 l 257
 566 150 l 257
 713 80 l 257
EndSplineSet
EndChar

StartChar: guilsinglleft
Encoding: 8249 8249 284
Width: 768
VWidth: 0
GlyphClass: 2
Flags: HW
PickledData: "(dp1
S'org.robofab.postScriptHintData'
p2
(dp3
s."
LayerCount: 2
Fore
SplineSet
454 80 m 257
 594 150 l 257
 387 530 l 257
 594 910 l 257
 447 980 l 257
 174 530 l 257
 454 80 l 257
EndSplineSet
EndChar

StartChar: guilsinglright
Encoding: 8250 8250 285
Width: 768
VWidth: 0
GlyphClass: 2
Flags: HW
PickledData: "(dp1
S'org.robofab.postScriptHintData'
p2
(dp3
s."
LayerCount: 2
Fore
SplineSet
327 80 m 257
 600 530 l 257
 320 980 l 257
 180 910 l 257
 387 530 l 257
 180 150 l 257
 327 80 l 257
EndSplineSet
EndChar

StartChar: h
Encoding: 104 104 286
Width: 1272
VWidth: 0
GlyphClass: 2
Flags: HW
PickledData: "(dp1
S'org.robofab.postScriptHintData'
p2
(dp3
s."
AnchorPoint: "top" 819 1305 basechar 0
LayerCount: 2
Fore
SplineSet
170 0 m 257
 442 0 l 257
 442 738 l 258
 442 842 557 894 655 894 c 256
 740 894 838 869 838 756 c 258
 838 0 l 257
 1110 0 l 257
 1110 795 l 258
 1110 976 984 1097 778 1097 c 256
 629 1097 488 1045 442 970 c 257
 442 1515 l 257
 170 1515 l 257
 170 0 l 257
EndSplineSet
EndChar

StartChar: hbar
Encoding: 295 295 287
Width: 1254
VWidth: 0
GlyphClass: 2
Flags: HW
PickledData: "(dp1
S'org.robofab.postScriptHintData'
p2
(dp3
s."
LayerCount: 2
Fore
SplineSet
5 1221 m 257
 735 1221 l 257
 735 1364 l 257
 5 1364 l 257
 5 1221 l 257
EndSplineSet
Refer: 286 104 N 1 0 0 1 0 0 2
EndChar

StartChar: hungarumlaut
Encoding: 733 733 289
Width: 1024
VWidth: 0
GlyphClass: 4
Flags: HW
PickledData: "(dp1
S'org.robofab.postScriptHintData'
p2
(dp3
s."
AnchorPoint: "top" 366 1074 mark 0
LayerCount: 2
Fore
SplineSet
106 1157 m 257
 255 1157 l 257
 488 1522 l 257
 220 1522 l 257
 106 1157 l 257
516 1157 m 257
 665 1157 l 257
 898 1522 l 257
 630 1522 l 257
 516 1157 l 257
EndSplineSet
EndChar

StartChar: hyphen
Encoding: 45 45 290
Width: 968
VWidth: 0
GlyphClass: 4
Flags: HW
PickledData: "(dp1
S'org.robofab.postScriptHintData'
p2
(dp3
s."
AnchorPoint: "mid" 476 569 mark 0
LayerCount: 2
Fore
SplineSet
132 494 m 257
 836 494 l 257
 836 642 l 257
 132 642 l 257
 132 494 l 257
EndSplineSet
EndChar

StartChar: infinity
Encoding: 8734 8734 302
Width: 2048
VWidth: 0
GlyphClass: 2
Flags: HW
PickledData: "(dp1
S'org.robofab.postScriptHintData'
p2
(dp3
s."
LayerCount: 2
Fore
SplineSet
508 360 m 256
 691 360 1024 620 1024 620 c 257
 1024 620 1357 360 1540 360 c 256
 1702 360 1830 500 1830 765 c 256
 1830 1030 1702 1170 1540 1170 c 256
 1357 1170 1024 910 1024 910 c 257
 1024 910 691 1170 508 1170 c 256
 346 1170 218 1030 218 765 c 256
 218 500 346 360 508 360 c 256
526 593 m 256
 417 593 378 666 378 765 c 256
 378 864 417 937 526 937 c 256
 600 937 783 817 889 765 c 257
 783 713 600 593 526 593 c 256
1522 593 m 256
 1448 593 1265 713 1159 765 c 257
 1265 817 1448 937 1522 937 c 256
 1631 937 1670 864 1670 765 c 256
 1670 666 1631 593 1522 593 c 256
EndSplineSet
EndChar

StartChar: integral
Encoding: 8747 8747 303
Width: 693
VWidth: 0
GlyphClass: 2
Flags: HW
PickledData: "(dp1
S'org.robofab.postScriptHintData'
p2
(dp3
s."
LayerCount: 2
Fore
SplineSet
176 -263 m 256
 404 -263 425 -125 425 43 c 258
 425 1152 l 258
 425 1227 437 1292 535 1292 c 256
 549 1292 572 1288 593 1286 c 257
 593 1433 l 257
 540 1439 508 1442 471 1442 c 256
 240 1442 220 1303 220 1126 c 258
 220 16 l 258
 220 -57 206 -114 116 -114 c 256
 101 -114 75 -111 51 -107 c 257
 51 -254 l 257
 105 -261 138 -263 176 -263 c 256
EndSplineSet
EndChar

StartChar: k
Encoding: 107 107 309
Width: 1211
VWidth: 0
GlyphClass: 2
Flags: HW
PickledData: "(dp1
S'org.robofab.postScriptHintData'
p2
(dp3
s."
AnchorPoint: "top" 789 1305 basechar 0
AnchorPoint: "bot" 664 0 basechar 0
LayerCount: 2
Fore
SplineSet
170 0 m 257
 442 0 l 257
 442 374 l 257
 562 497 l 257
 898 0 l 257
 1195 0 l 257
 773 611 l 257
 1177 1074 l 257
 867 1074 l 257
 442 602 l 257
 442 1516 l 257
 170 1516 l 257
 170 0 l 257
EndSplineSet
EndChar

StartChar: kgreenlandic
Encoding: 312 312 312
Width: 1213
VWidth: 0
GlyphClass: 2
Flags: HW
PickledData: "(dp1
S'org.robofab.postScriptHintData'
p2
(dp3
s."
LayerCount: 2
Fore
SplineSet
171 0 m 257
 444 0 l 257
 444 385 l 257
 540 483 l 257
 864 0 l 257
 1190 0 l 257
 771 605 l 257
 1169 1074 l 257
 845 1074 l 257
 793 1018 496 657 444 602 c 257
 444 1074 l 257
 171 1074 l 257
 171 0 l 257
EndSplineSet
EndChar

StartChar: l
Encoding: 108 108 313
Width: 734
VWidth: 0
GlyphClass: 2
Flags: HW
PickledData: "(dp1
S'org.robofab.postScriptHintData'
p2
(dp3
s."
AnchorPoint: "top" 335 1513 basechar 0
AnchorPoint: "caron.alt" 325 1074 basechar 0
AnchorPoint: "bot" 472 0 basechar 0
LayerCount: 2
Fore
SplineSet
533 -12 m 258
 647 -12 l 257
 668 190 l 257
 634 190 l 258
 488 190 442 239 442 357 c 258
 442 1515 l 257
 170 1515 l 257
 170 353 l 258
 170 83 294 -12 533 -12 c 258
EndSplineSet
EndChar

StartChar: less
Encoding: 60 60 318
Width: 1024
VWidth: 0
GlyphClass: 2
Flags: HW
PickledData: "(dp1
S'org.robofab.postScriptHintData'
p2
(dp3
s."
LayerCount: 2
Fore
SplineSet
856 31 m 257
 856 262 l 257
 293 556 l 257
 856 850 l 257
 856 1081 l 257
 112 664 l 257
 112 445 l 257
 856 31 l 257
EndSplineSet
EndChar

StartChar: lessequal
Encoding: 8804 8804 319
Width: 1252
VWidth: 0
GlyphClass: 2
Flags: HW
PickledData: "(dp1
S'org.robofab.postScriptHintData'
p2
(dp3
s."
LayerCount: 2
Fore
SplineSet
1023 239 m 257
 1023 470 l 257
 420 764 l 257
 1023 1058 l 257
 1023 1289 l 257
 239 872 l 257
 239 653 l 257
 1023 239 l 257
229 0 m 257
 1021 0 l 257
 1021 175 l 257
 229 175 l 257
 229 0 l 257
EndSplineSet
EndChar

StartChar: logicalnot
Encoding: 172 172 321
Width: 1024
VWidth: 0
GlyphClass: 2
Flags: HW
PickledData: "(dp1
S'org.robofab.postScriptHintData'
p2
(dp3
s."
LayerCount: 2
Fore
SplineSet
705 226 m 257
 853 226 l 257
 853 757 l 257
 129 757 l 257
 129 587 l 257
 705 587 l 257
 705 226 l 257
EndSplineSet
EndChar

StartChar: lozenge
Encoding: 9674 9674 322
Width: 1104
VWidth: 0
GlyphClass: 2
Flags: HW
PickledData: "(dp1
S'org.robofab.postScriptHintData'
p2
(dp3
s."
LayerCount: 2
Fore
SplineSet
466 0 m 257
 664 0 l 257
 1002 754 l 257
 664 1505 l 257
 466 1505 l 257
 102 754 l 257
 466 0 l 257
567 188 m 257
 316 754 l 257
 567 1307 l 257
 793 754 l 257
 567 188 l 257
EndSplineSet
EndChar

StartChar: lslash
Encoding: 322 322 323
Width: 708
VWidth: 0
GlyphClass: 2
Flags: HW
PickledData: "(dp1
S'org.robofab.postScriptHintData'
p2
(dp3
s."
LayerCount: 2
Fore
SplineSet
25 680 m 257
 599 915 l 257
 599 1059 l 257
 25 823 l 257
 25 680 l 257
EndSplineSet
Refer: 313 108 N 1 0 0 1 0 0 2
EndChar

StartChar: m
Encoding: 109 109 324
Width: 1912
VWidth: 0
GlyphClass: 2
Flags: HW
PickledData: "(dp1
S'org.robofab.postScriptHintData'
p2
(dp3
s."
AnchorPoint: "top" 1062 1074 basechar 0
LayerCount: 2
Fore
SplineSet
168 0 m 257
 440 0 l 257
 440 739 l 258
 440 844 567 897 665 897 c 256
 750 897 825 875 825 762 c 258
 825 0 l 257
 1097 0 l 257
 1097 750 l 257
 1105 846 1228 897 1325 897 c 256
 1409 897 1478 875 1478 762 c 258
 1478 0 l 257
 1750 0 l 257
 1750 794 l 258
 1750 975 1615 1097 1409 1097 c 256
 1239 1097 1130 1042 1052 964 c 257
 997 1056 895 1097 757 1097 c 256
 578 1097 471 1011 440 978 c 257
 440 1074 l 257
 168 1074 l 257
 168 0 l 257
EndSplineSet
EndChar

StartChar: macron
Encoding: 175 175 325
Width: 511
VWidth: 0
GlyphClass: 4
Flags: HW
PickledData: "(dp1
S'org.robofab.postScriptHintData'
p2
(dp3
s."
AnchorPoint: "top" 257 1074 mark 0
AnchorPoint: "mid" 258 1329 mark 0
LayerCount: 2
Fore
SplineSet
-47 1251 m 257
 557 1251 l 257
 557 1408 l 257
 -47 1408 l 257
 -47 1251 l 257
EndSplineSet
EndChar

StartChar: minus
Encoding: 8722 8722 327
Width: 792
VWidth: 0
GlyphClass: 2
Flags: HW
PickledData: "(dp1
S'org.robofab.postScriptHintData'
p2
(dp3
s."
LayerCount: 2
Fore
SplineSet
122 439 m 257
 664 439 l 257
 664 619 l 257
 122 619 l 257
 122 439 l 257
EndSplineSet
EndChar

StartChar: uni03BC
Encoding: 956 956 328
Width: 1246
VWidth: 0
GlyphClass: 2
Flags: HW
PickledData: "(dp1
S'org.robofab.postScriptHintData'
p2
(dp3
s."
LayerCount: 2
Fore
SplineSet
815 1074 m 257
 815 317 l 258
 815 217 701 166 602 166 c 256
 518 166 420 196 420 308 c 258
 420 1074 l 257
 148 1074 l 257
 148 -236 l 257
 400 -236 l 257
 400 2 l 257
 456 -12 507 -19 552 -19 c 256
 688 -19 777 41 815 135 c 257
 821 0 l 257
 1088 0 l 257
 1088 1074 l 257
 815 1074 l 257
EndSplineSet
EndChar

StartChar: multiply
Encoding: 215 215 329
Width: 1025
VWidth: 0
GlyphClass: 2
Flags: HW
PickledData: "(dp1
S'org.robofab.postScriptHintData'
p2
(dp3
s."
LayerCount: 2
Fore
SplineSet
265 216 m 257
 513 458 l 257
 761 216 l 257
 871 344 l 257
 634 576 l 257
 871 806 l 257
 761 937 l 257
 513 694 l 257
 265 937 l 257
 154 806 l 257
 392 576 l 257
 154 344 l 257
 265 216 l 257
EndSplineSet
EndChar

StartChar: n
Encoding: 110 110 330
Width: 1272
VWidth: 0
GlyphClass: 2
Flags: HW
PickledData: "(dp1
S'org.robofab.postScriptHintData'
p2
(dp3
s."
AnchorPoint: "top" 679 1074 basechar 0
AnchorPoint: "bot" 664 0 basechar 0
LayerCount: 2
Fore
SplineSet
1110 770 m 258
 1110 960 996 1099 773 1099 c 256
 571 1099 462 998 440 979 c 257
 440 1074 l 257
 168 1074 l 257
 168 0 l 257
 440 0 l 257
 440 735 l 258
 440 840 551 894 649 894 c 256
 734 894 838 868 838 755 c 258
 838 0 l 257
 1110 0 l 257
 1110 770 l 258
EndSplineSet
EndChar

StartChar: nine
Encoding: 57 57 335
Width: 1379
VWidth: 0
GlyphClass: 2
Flags: HW
PickledData: "(dp1
S'org.robofab.postScriptHintData'
p2
(dp3
s."
LayerCount: 2
Fore
SplineSet
486 0 m 257
 806 0 l 257
 1096 528 l 257
 1174 677 1231 833 1231 1024 c 256
 1231 1327 1044 1496 708 1496 c 256
 360 1496 167 1332 167 1037 c 256
 167 679 342 569 656 569 c 256
 686 569 772 578 808 589 c 257
 486 0 l 257
707 782 m 256
 515 782 452 844 452 1037 c 256
 452 1194 542 1282 704 1282 c 256
 855 1282 939 1195 939 1039 c 256
 939 848 882 782 707 782 c 256
EndSplineSet
EndChar

StartChar: notequal
Encoding: 8800 8800 337
Width: 919
VWidth: 0
GlyphClass: 2
Flags: HW
PickledData: "(dp1
S'org.robofab.postScriptHintData'
p2
(dp3
s."
LayerCount: 2
Fore
SplineSet
126 150 m 257
 299 150 l 257
 738 1094 l 257
 565 1094 l 257
 126 150 l 257
EndSplineSet
Refer: 254 61 N 1 0 0 1 0 0 2
EndChar

StartChar: numbersign
Encoding: 35 35 339
Width: 1430
VWidth: 0
GlyphClass: 2
Flags: HW
PickledData: "(dp1
S'org.robofab.postScriptHintData'
p2
(dp3
s."
LayerCount: 2
Fore
SplineSet
223 0 m 257
 429 0 l 257
 512 478 l 257
 769 478 l 257
 683 0 l 257
 889 0 l 257
 971 478 l 257
 1244 478 l 257
 1244 618 l 257
 996 618 l 257
 1044 896 l 257
 1268 896 l 257
 1268 1036 l 257
 1069 1036 l 257
 1145 1477 l 257
 947 1477 l 257
 868 1036 l 257
 609 1036 l 257
 685 1477 l 257
 487 1477 l 257
 408 1036 l 257
 128 1036 l 257
 128 896 l 257
 384 896 l 257
 334 618 l 257
 104 618 l 257
 104 478 l 257
 309 478 l 257
 223 0 l 257
536 618 m 257
 584 896 l 257
 843 896 l 257
 793 618 l 257
 536 618 l 257
EndSplineSet
EndChar

StartChar: o
Encoding: 111 111 340
Width: 1212
VWidth: 0
GlyphClass: 2
Flags: HW
PickledData: "(dp1
S'org.robofab.postScriptHintData'
p2
(dp3
s."
AnchorPoint: "top" 608 1074 basechar 0
AnchorPoint: "ogonek" 673 0 basechar 0
AnchorPoint: "bot" 608 0 basechar 0
LayerCount: 2
Fore
SplineSet
606 166 m 256
 481 166 412 204 412 313 c 258
 412 760 l 258
 412 869 488 907 606 907 c 256
 729 907 800 869 800 760 c 258
 800 313 l 258
 800 204 722 166 606 166 c 256
606 -23 m 256
 955 -23 1072 112 1072 325 c 258
 1072 748 l 258
 1072 967 899 1097 606 1097 c 256
 311 1097 140 967 140 748 c 258
 140 325 l 258
 140 111 267 -23 606 -23 c 256
EndSplineSet
Substitution2: "Single Substitution lookup 15 subtable" ordmasculine
EndChar

StartChar: oe
Encoding: 339 339 347
Width: 1780
VWidth: 0
GlyphClass: 2
Flags: HW
PickledData: "(dp1
S'org.robofab.postScriptHintData'
p2
(dp3
s."
LayerCount: 2
Fore
SplineSet
584 -23 m 256
 734 -23 835 22 905 90 c 257
 985 18 1097 -23 1222 -23 c 256
 1512 -23 1663 45 1670 357 c 257
 1416 357 l 257
 1412 188 1349 166 1227 166 c 256
 1113 166 1042 203 1042 321 c 258
 1042 512 l 257
 1670 512 l 257
 1670 745 l 258
 1670 961 1546 1097 1220 1097 c 256
 1089 1097 981 1061 903 977 c 257
 825 1060 716 1097 584 1097 c 256
 307 1097 124 970 124 749 c 258
 124 326 l 258
 124 112 246 -23 584 -23 c 256
584 166 m 256
 461 166 397 205 397 314 c 258
 397 762 l 258
 397 870 470 907 584 907 c 256
 707 907 769 869 769 762 c 258
 769 314 l 258
 769 205 698 166 584 166 c 256
1042 655 m 257
 1042 760 l 258
 1042 874 1118 907 1227 907 c 256
 1336 907 1413 884 1413 765 c 258
 1413 655 l 257
 1042 655 l 257
EndSplineSet
EndChar

StartChar: ogonek
Encoding: 731 731 348
Width: 487
VWidth: 0
GlyphClass: 4
Flags: HW
PickledData: "(dp1
S'org.robofab.postScriptHintData'
p2
(dp3
s."
AnchorPoint: "ogonek" 265 0 mark 0
LayerCount: 2
Fore
SplineSet
409 -508 m 257
 422 -367 l 257
 333 -367 246 -350 246 -245 c 256
 246 -156 288 -70 329 9 c 257
 214 9 l 257
 124 -76 61 -194 61 -294 c 256
 61 -475 237 -508 395 -508 c 258
 409 -508 l 257
EndSplineSet
EndChar

StartChar: one
Encoding: 49 49 353
Width: 1379
VWidth: 0
GlyphClass: 2
Flags: HW
PickledData: "(dp1
S'org.robofab.postScriptHintData'
p2
(dp3
s."
LayerCount: 2
Fore
SplineSet
249 0 m 257
 1233 0 l 257
 1233 209 l 257
 907 209 l 257
 907 1476 l 257
 702 1476 l 257
 245 1404 l 257
 271 1187 l 257
 610 1241 l 257
 610 209 l 257
 249 209 l 257
 249 0 l 257
EndSplineSet
Substitution2: "supsSuperscriptlookup11 subtable" uni00B9
EndChar

StartChar: onehalf
Encoding: 189 189 354
Width: 2579
VWidth: 0
GlyphClass: 3
Flags: HW
PickledData: "(dp1
S'org.robofab.postScriptHintData'
p2
(dp3
s."
LayerCount: 2
Fore
SplineSet
1723 -2 m 257
 2370 -2 l 257
 2370 160 l 257
 1933 160 l 257
 2166 386 l 258
 2284 501 2381 612 2381 767 c 256
 2381 940 2295 1071 2025 1071 c 256
 1740 1071 1652 958 1652 706 c 257
 1870 706 l 257
 1870 860 1892 911 2027 911 c 256
 2130 911 2167 864 2167 769 c 256
 2167 675 2122 608 2033 518 c 258
 1678 159 l 257
 1723 -2 l 257
131 422 m 257
 856 422 l 257
 856 569 l 257
 610 569 l 257
 610 1477 l 257
 464 1477 l 257
 128 1424 l 257
 146 1279 l 257
 398 1318 l 257
 398 569 l 257
 130 569 l 257
 131 422 l 257
879 0 m 257
 1053 0 l 257
 1694 1505 l 257
 1520 1505 l 257
 879 0 l 257
EndSplineSet
Ligature2: "fracDiagonalFractionslookup12 subtable" one slash two
EndChar

StartChar: onequarter
Encoding: 188 188 355
Width: 2433
VWidth: 0
GlyphClass: 3
Flags: HW
PickledData: "(dp1
S'org.robofab.postScriptHintData'
p2
(dp3
s."
LayerCount: 2
Fore
SplineSet
1978 0 m 257
 2137 0 l 257
 2137 210 l 257
 2305 210 l 257
 2305 373 l 257
 2137 373 l 257
 2137 615 l 257
 1978 615 l 257
 1978 373 l 257
 1679 373 l 257
 1948 1074 l 257
 1757 1074 l 257
 1477 369 l 257
 1477 210 l 257
 1978 210 l 257
 1978 0 l 257
131 422 m 257
 856 422 l 257
 856 569 l 257
 610 569 l 257
 610 1477 l 257
 464 1477 l 257
 128 1424 l 257
 146 1279 l 257
 398 1318 l 257
 398 569 l 257
 130 569 l 257
 131 422 l 257
849 0 m 257
 1023 0 l 257
 1664 1505 l 257
 1490 1505 l 257
 849 0 l 257
EndSplineSet
Ligature2: "fracDiagonalFractionslookup12 subtable" one slash four
EndChar

StartChar: uni00B9
Encoding: 185 185 356
Width: 1127
VWidth: 0
GlyphClass: 2
Flags: HW
PickledData: "(dp1
S'org.robofab.postScriptHintData'
p2
(dp3
s."
LayerCount: 2
Fore
SplineSet
213 624 m 257
 941 624 l 257
 941 761 l 257
 692 761 l 257
 692 1556 l 257
 557 1556 l 257
 210 1509 l 257
 227 1366 l 257
 497 1401 l 257
 497 761 l 257
 213 761 l 257
 213 624 l 257
EndSplineSet
EndChar

StartChar: ordfeminine
Encoding: 170 170 358
Width: 1024
VWidth: 0
GlyphClass: 2
Flags: HW
PickledData: "(dp1
S'org.robofab.postScriptHintData'
p2
(dp3
sS'com.typemytype.robofont.layerData'
p4
(dp5
s."
LayerCount: 2
Fore
SplineSet
134 785 m 256
 134 621 228 518 384 518 c 257
 386 517 l 257
 513 517 606 591 653 656 c 257
 684 582 717 531 837 531 c 258
 922 531 l 257
 940 701 l 257
 870 701 854 728 854 812 c 258
 854 1166 l 258
 854 1356 765 1478 506 1478 c 256
 269 1478 161 1363 161 1185 c 258
 161 1158 l 257
 366 1158 l 257
 366 1194 l 258
 366 1265 391 1316 501 1316 c 256
 599 1316 634 1278 634 1204 c 256
 633 1088 565 1087 409 1037 c 256
 176 963 134 903 134 785 c 256
458 684 m 258
 384 684 344 726 344 801 c 256
 344 851 373 897 463 924 c 256
 536 946 606 976 633 1002 c 257
 633 770 l 257
 593 706 512 684 459 684 c 258
 458 684 l 258
EndSplineSet
EndChar

StartChar: ordmasculine
Encoding: 186 186 359
Width: 1024
VWidth: 0
GlyphClass: 2
Flags: HW
PickledData: "(dp1
S'org.robofab.postScriptHintData'
p2
(dp3
s."
LayerCount: 2
Fore
SplineSet
509 675 m 258
 408 675 352 708 352 802 c 258
 352 1187 l 258
 352 1281 414 1314 510 1314 c 256
 610 1314 667 1281 667 1187 c 258
 667 802 l 258
 667 708 605 675 511 675 c 258
 509 675 l 258
513 512 m 256
 794 513 888 628 888 811 c 258
 888 1175 l 258
 888 1363 749 1475 512 1475 c 256
 273 1475 136 1363 136 1175 c 258
 136 811 l 258
 136 627 238 512 513 512 c 256
EndSplineSet
EndChar

StartChar: oslash
Encoding: 248 248 360
Width: 1180
VWidth: 0
GlyphClass: 2
Flags: HW
PickledData: "(dp1
S'org.robofab.postScriptHintData'
p2
(dp3
s."
AnchorPoint: "top" 600 1074 basechar 0
LayerCount: 2
Fore
SplineSet
367 -214 m 257
 896 1260 l 257
 824 1281 l 257
 295 -194 l 257
 367 -214 l 257
EndSplineSet
Refer: 340 111 N 1 0 0 1 0 0 2
EndChar

StartChar: p
Encoding: 112 112 363
Width: 1210
VWidth: 0
GlyphClass: 2
Flags: HW
PickledData: "(dp1
S'org.robofab.postScriptHintData'
p2
(dp3
s."
AnchorPoint: "top" 700 1074 basechar 0
LayerCount: 2
Fore
SplineSet
168 -410 m 257
 440 -410 l 257
 440 17 l 257
 492 -6 560 -23 645 -23 c 256
 948 -23 1086 142 1086 326 c 258
 1086 751 l 258
 1086 957 937 1097 677 1097 c 256
 560 1097 456 1056 385 1004 c 257
 358 1074 l 257
 168 1074 l 257
 168 -410 l 257
622 166 m 256
 517 166 455 205 440 213 c 257
 440 841 l 257
 471 872 544 907 631 907 c 256
 745 907 814 863 814 755 c 258
 814 320 l 258
 814 211 746 166 622 166 c 256
EndSplineSet
EndChar

StartChar: paragraph
Encoding: 182 182 364
Width: 1222
VWidth: 0
GlyphClass: 2
Flags: HW
PickledData: "(dp1
S'org.robofab.postScriptHintData'
p2
(dp3
s."
LayerCount: 2
Fore
SplineSet
447 0 m 257
 619 0 l 257
 619 1334 l 257
 850 1334 l 257
 850 0 l 257
 1022 0 l 257
 1022 1476 l 257
 462 1476 l 258
 268 1476 95 1389 95 1173 c 256
 95 963 253 859 447 858 c 257
 447 0 l 257
EndSplineSet
EndChar

StartChar: parenleft
Encoding: 40 40 365
Width: 946
VWidth: 0
GlyphClass: 2
Flags: HW
PickledData: "(dp1
S'org.robofab.postScriptHintData'
p2
(dp3
s."
LayerCount: 2
Fore
SplineSet
782 -159 m 257
 782 56 l 257
 574 56 487 121 487 390 c 258
 487 1020 l 258
 487 1291 576 1359 782 1359 c 257
 782 1575 l 257
 779 1575 l 258
 343 1575 208 1341 208 986 c 258
 208 420 l 258
 208 68 344 -159 779 -159 c 258
 782 -159 l 257
EndSplineSet
EndChar

StartChar: parenright
Encoding: 41 41 366
Width: 946
VWidth: 0
GlyphClass: 2
Flags: HW
PickledData: "(dp1
S'org.robofab.postScriptHintData'
p2
(dp3
s."
LayerCount: 2
Fore
SplineSet
181 -159 m 257
 184 -159 l 258
 620 -159 754 75 754 430 c 258
 754 996 l 258
 754 1348 619 1575 184 1575 c 258
 181 1575 l 257
 181 1359 l 257
 389 1359 476 1295 476 1025 c 258
 476 395 l 258
 476 125 387 57 181 57 c 257
 181 -159 l 257
EndSplineSet
EndChar

StartChar: partialdiff
Encoding: 8706 8706 367
Width: 1216
VWidth: 0
GlyphClass: 2
Flags: HW
PickledData: "(dp1
S'org.robofab.postScriptHintData'
p2
(dp3
s."
LayerCount: 2
Fore
SplineSet
474 -20 m 256
 867 -20 1107 387 1107 902 c 256
 1107 1303 874 1496 585 1496 c 256
 457 1496 314 1454 206 1389 c 257
 247 1288 l 257
 350 1343 423 1364 501 1364 c 256
 669 1364 822 1241 822 958 c 258
 822 934 l 257
 362 906 111 573 111 310 c 256
 111 136 223 -20 474 -20 c 256
488 130 m 256
 454 130 423 186 423 282 c 256
 423 477 567 744 813 794 c 257
 789 529 675 130 488 130 c 256
EndSplineSet
EndChar

StartChar: percent
Encoding: 37 37 369
Width: 2114
VWidth: 0
GlyphClass: 2
Flags: HW
PickledData: "(dp1
S'org.robofab.postScriptHintData'
p2
(dp3
s."
LayerCount: 2
Fore
SplineSet
496 794 m 256
 369 794 356 894 356 1029 c 258
 356 1118 l 258
 356 1248 365 1337 496 1337 c 256
 629 1337 638 1248 638 1116 c 258
 638 1029 l 258
 638 894 623 794 496 794 c 256
496 664 m 256
 726 664 801 814 801 1043 c 258
 801 1097 l 257
 799 1330 726 1467 496 1467 c 256
 265 1467 196 1329 196 1096 c 258
 196 1043 l 258
 196 815 266 664 496 664 c 256
1614 111 m 256
 1486 111 1473 211 1473 346 c 258
 1473 435 l 258
 1473 565 1482 654 1614 654 c 256
 1746 654 1755 565 1755 433 c 258
 1755 346 l 258
 1755 211 1740 111 1614 111 c 256
1614 -19 m 256
 1844 -19 1918 131 1918 360 c 258
 1918 414 l 257
 1916 647 1844 784 1614 784 c 256
 1383 784 1313 646 1313 413 c 258
 1313 360 l 258
 1313 132 1384 -19 1614 -19 c 256
694 0 m 257
 872 0 l 257
 1410 1446 l 257
 1237 1446 l 257
 694 0 l 257
EndSplineSet
EndChar

StartChar: period
Encoding: 46 46 370
Width: 634
VWidth: 0
GlyphClass: 2
Flags: HW
PickledData: "(dp1
S'org.robofab.postScriptHintData'
p2
(dp3
s."
LayerCount: 2
Fore
SplineSet
164 0 m 257
 462 0 l 257
 462 284 l 257
 164 284 l 257
 164 0 l 257
EndSplineSet
EndChar

StartChar: periodcentered
Encoding: 183 183 371
Width: 512
VWidth: 0
GlyphClass: 4
Flags: HW
PickledData: "(dp1
S'org.robofab.postScriptHintData'
p2
(dp3
s."
AnchorPoint: "mid" 1 902 mark 0
LayerCount: 2
Fore
SplineSet
264 780 m 257
 512 780 l 257
 512 1025 l 257
 264 1025 l 257
 264 780 l 257
EndSplineSet
EndChar

StartChar: perthousand
Encoding: 8240 8240 372
Width: 2769
VWidth: 0
GlyphClass: 2
Flags: HW
PickledData: "(dp1
S'org.robofab.postScriptHintData'
p2
(dp3
s."
LayerCount: 2
Fore
SplineSet
429 788 m 256
 301 788 288 888 288 1023 c 258
 288 1112 l 258
 288 1242 297 1331 429 1331 c 256
 561 1331 570 1242 570 1110 c 258
 570 1023 l 258
 570 888 556 788 429 788 c 256
429 658 m 256
 659 658 733 808 733 1037 c 258
 733 1091 l 257
 731 1324 659 1461 429 1461 c 256
 198 1461 128 1323 128 1090 c 258
 128 1037 l 258
 128 809 199 658 429 658 c 256
1546 111 m 256
 1418 111 1405 211 1405 346 c 258
 1405 435 l 258
 1405 565 1414 654 1546 654 c 256
 1678 654 1688 565 1688 433 c 258
 1688 346 l 258
 1688 211 1673 111 1546 111 c 256
1546 -19 m 256
 1776 -19 1851 131 1851 360 c 258
 1851 414 l 257
 1849 647 1776 784 1546 784 c 256
 1315 784 1245 646 1245 413 c 258
 1245 360 l 258
 1245 132 1316 -19 1546 -19 c 256
2300 111 m 256
 2172 111 2159 211 2159 346 c 258
 2159 435 l 258
 2159 565 2168 654 2300 654 c 256
 2432 654 2442 565 2442 433 c 258
 2442 346 l 258
 2442 211 2427 111 2300 111 c 256
2300 -19 m 256
 2530 -19 2605 131 2605 360 c 258
 2605 414 l 257
 2603 647 2530 784 2300 784 c 256
 2069 784 1999 646 1999 413 c 258
 1999 360 l 258
 1999 132 2070 -19 2300 -19 c 256
626 0 m 257
 804 0 l 257
 1342 1446 l 257
 1169 1446 l 257
 626 0 l 257
EndSplineSet
EndChar

StartChar: pi
Encoding: 960 960 373
Width: 1257
VWidth: 0
GlyphClass: 2
Flags: HW
PickledData: "(dp1
S'org.robofab.postScriptHintData'
p2
(dp3
s."
LayerCount: 2
Fore
SplineSet
36 801 m 257
 95 845 131 881 238 891 c 257
 238 0 l 257
 490 0 l 257
 490 893 l 257
 755 893 l 257
 755 297 l 258
 755 39 870 -20 1093 -20 c 258
 1110 -20 l 257
 1155 156 l 257
 1027 181 1007 184 1007 343 c 258
 1007 893 l 257
 1189 893 l 257
 1189 1074 l 257
 237 1074 l 258
 134 1074 75 1032 36 986 c 257
 36 801 l 257
EndSplineSet
EndChar

StartChar: plus
Encoding: 43 43 374
Width: 966
VWidth: 0
GlyphClass: 2
Flags: HW
PickledData: "(dp1
S'org.robofab.postScriptHintData'
p2
(dp3
s."
LayerCount: 2
Fore
SplineSet
401 156 m 257
 565 156 l 257
 565 487 l 257
 834 487 l 257
 834 649 l 257
 565 649 l 257
 565 968 l 257
 401 968 l 257
 401 649 l 257
 132 649 l 257
 132 487 l 257
 401 487 l 257
 401 156 l 257
EndSplineSet
EndChar

StartChar: plusminus
Encoding: 177 177 375
Width: 1024
VWidth: 0
GlyphClass: 2
Flags: HW
PickledData: "(dp1
S'org.robofab.postScriptHintData'
p2
(dp3
s."
LayerCount: 2
Fore
SplineSet
429 326 m 257
 595 326 l 257
 595 591 l 257
 853 591 l 257
 853 755 l 257
 595 755 l 257
 595 1018 l 257
 429 1018 l 257
 429 755 l 257
 171 755 l 257
 171 591 l 257
 429 591 l 257
 429 326 l 257
171 0 m 257
 853 0 l 257
 853 165 l 257
 171 165 l 257
 171 0 l 257
EndSplineSet
EndChar

StartChar: product
Encoding: 8719 8719 376
Width: 1776
VWidth: 0
GlyphClass: 2
Flags: HW
PickledData: "(dp1
S'org.robofab.postScriptHintData'
p2
(dp3
s."
LayerCount: 2
Fore
SplineSet
652 319 m 257
 783 319 l 257
 783 652 l 257
 961 652 l 258
 1181 652 1237 760 1237 894 c 258
 1237 908 l 257
 1233 1082 1131 1153 974 1153 c 258
 652 1153 l 257
 652 319 l 257
783 742 m 257
 783 1062 l 257
 978 1062 l 258
 1096 1062 1105 960 1105 901 c 258
 1105 877 l 257
 1104 814 1083 742 969 742 c 258
 783 742 l 257
890 82 m 256
 526 82 261 357 261 722 c 256
 261 1086 526 1361 890 1361 c 256
 1256 1361 1518 1086 1518 722 c 256
 1518 357 1256 82 890 82 c 256
888 -14 m 256
 1304 -14 1624 303 1624 722 c 256
 1624 1139 1304 1456 888 1456 c 256
 475 1456 152 1139 152 722 c 256
 152 303 475 -14 888 -14 c 256
EndSplineSet
EndChar

StartChar: q
Encoding: 113 113 377
Width: 1210
VWidth: 0
GlyphClass: 2
Flags: HW
PickledData: "(dp1
S'org.robofab.postScriptHintData'
p2
(dp3
s."
LayerCount: 2
Fore
SplineSet
770 -410 m 257
 1042 -410 l 257
 1042 1074 l 257
 839 1074 l 257
 820 1005 l 257
 759 1056 655 1097 543 1097 c 256
 282 1097 124 960 124 750 c 258
 124 317 l 258
 124 136 235 -23 537 -23 c 256
 619 -23 705 -4 770 33 c 257
 770 -410 l 257
588 166 m 256
 467 166 396 200 396 308 c 258
 396 756 l 258
 396 865 472 907 588 907 c 256
 685 907 745 878 770 839 c 257
 770 220 l 257
 767 213 702 166 588 166 c 256
EndSplineSet
EndChar

StartChar: question
Encoding: 63 63 378
Width: 1244
VWidth: 0
GlyphClass: 2
Flags: HW
PickledData: "(dp1
S'org.robofab.postScriptHintData'
p2
(dp3
s."
LayerCount: 2
Fore
SplineSet
445 431 m 257
 674 431 l 257
 856 582 l 258
 1038 733 1118 862 1118 1067 c 256
 1118 1289 1047 1501 619 1501 c 256
 186 1501 130 1309 130 1036 c 258
 130 962 l 257
 404 962 l 257
 404 1047 l 258
 404 1188 417 1279 619 1279 c 256
 805 1279 826 1166 826 1056 c 256
 826 936 789 860 693 740 c 258
 445 431 l 257
429 0 m 257
 678 0 l 257
 678 245 l 257
 429 245 l 257
 429 0 l 257
EndSplineSet
EndChar

StartChar: quotedbl
Encoding: 34 34 380
Width: 1024
VWidth: 0
GlyphClass: 2
Flags: HW
PickledData: "(dp1
S'org.robofab.postScriptHintData'
p2
(dp3
s."
LayerCount: 2
Fore
SplineSet
277 872 m 257
 396 872 l 257
 451 1516 l 257
 198 1516 l 257
 277 872 l 257
630 872 m 257
 749 872 l 257
 826 1516 l 257
 572 1516 l 257
 630 872 l 257
EndSplineSet
EndChar

StartChar: quotedblbase
Encoding: 8222 8222 381
Width: 1373
VWidth: 0
GlyphClass: 2
Flags: HW
PickledData: "(dp1
S'org.robofab.postScriptHintData'
p2
(dp3
s."
LayerCount: 2
Fore
SplineSet
921 -389 m 257
 983 -333 1117 -148 1117 53 c 258
 1117 276 l 257
 795 276 l 257
 795 0 l 257
 960 0 l 257
 960 -138 865 -285 814 -343 c 257
 921 -389 l 257
422 -389 m 257
 484 -333 618 -148 618 53 c 258
 618 276 l 257
 296 276 l 257
 296 0 l 257
 461 0 l 257
 461 -138 366 -285 315 -343 c 257
 422 -389 l 257
EndSplineSet
EndChar

StartChar: quotedblleft
Encoding: 8220 8220 382
Width: 1310
VWidth: 0
GlyphClass: 2
Flags: HW
PickledData: "(dp1
S'org.robofab.postScriptHintData'
p2
(dp3
s."
LayerCount: 2
Fore
SplineSet
452 1515 m 257
 390 1459 256 1274 256 1073 c 258
 256 850 l 257
 578 850 l 257
 578 1126 l 257
 413 1126 l 257
 413 1264 508 1411 559 1469 c 257
 452 1515 l 257
928 1515 m 257
 866 1459 732 1274 732 1073 c 258
 732 850 l 257
 1054 850 l 257
 1054 1126 l 257
 889 1126 l 257
 889 1264 984 1411 1035 1469 c 257
 928 1515 l 257
EndSplineSet
EndChar

StartChar: quotedblright
Encoding: 8221 8221 383
Width: 1350
VWidth: 0
GlyphClass: 2
Flags: HW
PickledData: "(dp1
S'org.robofab.postScriptHintData'
p2
(dp3
s."
LayerCount: 2
Fore
SplineSet
422 851 m 257
 484 907 618 1092 618 1293 c 258
 618 1516 l 257
 296 1516 l 257
 296 1240 l 257
 461 1240 l 257
 461 1102 366 955 315 897 c 257
 422 851 l 257
898 851 m 257
 960 907 1094 1092 1094 1293 c 258
 1094 1516 l 257
 772 1516 l 257
 772 1240 l 257
 937 1240 l 257
 937 1102 842 955 791 897 c 257
 898 851 l 257
EndSplineSet
EndChar

StartChar: quoteleft
Encoding: 8216 8216 384
Width: 874
VWidth: 0
GlyphClass: 2
Flags: HW
PickledData: "(dp1
S'org.robofab.postScriptHintData'
p2
(dp3
s."
LayerCount: 2
Fore
SplineSet
492 1503 m 257
 430 1447 296 1262 296 1061 c 258
 296 838 l 257
 618 838 l 257
 618 1114 l 257
 453 1114 l 257
 453 1252 548 1399 599 1457 c 257
 492 1503 l 257
EndSplineSet
EndChar

StartChar: quoteright
Encoding: 8217 8217 385
Width: 834
VWidth: 0
GlyphClass: 2
Flags: HW
PickledData: "(dp1
S'org.robofab.postScriptHintData'
p2
(dp3
s."
LayerCount: 2
Fore
SplineSet
382 839 m 257
 444 895 578 1080 578 1281 c 258
 578 1504 l 257
 256 1504 l 257
 256 1228 l 257
 421 1228 l 257
 421 1090 326 943 275 885 c 257
 382 839 l 257
EndSplineSet
EndChar

StartChar: quotesinglbase
Encoding: 8218 8218 386
Width: 874
VWidth: 0
GlyphClass: 2
Flags: HW
PickledData: "(dp1
S'org.robofab.postScriptHintData'
p2
(dp3
s."
LayerCount: 2
Fore
SplineSet
422 -389 m 257
 484 -333 618 -148 618 53 c 258
 618 276 l 257
 296 276 l 257
 296 0 l 257
 461 0 l 257
 461 -138 366 -285 315 -343 c 257
 422 -389 l 257
EndSplineSet
EndChar

StartChar: quotesingle
Encoding: 39 39 387
Width: 769
VWidth: 0
GlyphClass: 2
Flags: HW
PickledData: "(dp1
S'org.robofab.postScriptHintData'
p2
(dp3
s."
LayerCount: 2
Fore
SplineSet
337 872 m 257
 456 872 l 257
 511 1516 l 257
 258 1516 l 257
 337 872 l 257
EndSplineSet
EndChar

StartChar: r
Encoding: 114 114 388
Width: 855
VWidth: 0
GlyphClass: 2
Flags: HW
PickledData: "(dp1
S'org.robofab.postScriptHintData'
p2
(dp3
s."
AnchorPoint: "top" 542 1074 basechar 0
AnchorPoint: "bot" 301 0 basechar 0
LayerCount: 2
Fore
SplineSet
160 0 m 257
 432 0 l 257
 432 720 l 257
 453 806 667 852 805 859 c 257
 811 1090 l 257
 804 1091 796 1091 787 1091 c 256
 685 1091 479 1037 432 946 c 257
 432 1074 l 257
 160 1074 l 257
 160 0 l 257
EndSplineSet
EndChar

StartChar: radical
Encoding: 8730 8730 390
Width: 1298
VWidth: 0
GlyphClass: 2
Flags: HW
PickledData: "(dp1
S'org.robofab.postScriptHintData'
p2
(dp3
s."
LayerCount: 2
Fore
SplineSet
-2 512 m 257
 117 512 l 257
 427 0 l 257
 674 0 l 257
 1267 1506 l 257
 1072 1506 l 257
 554 229 l 257
 339 623 l 257
 -2 623 l 257
 -2 512 l 257
EndSplineSet
EndChar

StartChar: registered
Encoding: 174 174 394
Width: 1776
VWidth: 0
GlyphClass: 2
Flags: HW
PickledData: "(dp1
S'org.robofab.postScriptHintData'
p2
(dp3
s."
LayerCount: 2
Fore
SplineSet
592 319 m 257
 723 319 l 257
 723 652 l 257
 982 652 l 257
 1162 319 l 257
 1290 319 l 257
 1106 666 l 257
 1198 691 1258 760 1258 894 c 258
 1258 908 l 257
 1254 1082 1152 1153 995 1153 c 258
 592 1153 l 257
 592 319 l 257
723 742 m 257
 723 1062 l 257
 999 1062 l 258
 1117 1062 1126 960 1126 901 c 258
 1126 877 l 257
 1125 814 1104 742 990 742 c 258
 723 742 l 257
890 82 m 256
 526 82 261 357 261 722 c 256
 261 1086 526 1361 890 1361 c 256
 1256 1361 1518 1086 1518 722 c 256
 1518 357 1256 82 890 82 c 256
888 -14 m 256
 1304 -14 1624 303 1624 722 c 256
 1624 1139 1304 1456 888 1456 c 256
 475 1456 152 1139 152 722 c 256
 152 303 475 -14 888 -14 c 256
EndSplineSet
EndChar

StartChar: ring
Encoding: 730 730 395
Width: 592
VWidth: 0
GlyphClass: 4
Flags: HW
PickledData: "(dp1
S'org.robofab.postScriptHintData'
p2
(dp3
s."
AnchorPoint: "top" 297 1074 mark 0
LayerCount: 2
Fore
SplineSet
296 1271 m 256
 228 1271 178 1298 178 1395 c 256
 178 1491 228 1518 295 1518 c 256
 363 1518 414 1490 414 1393 c 256
 414 1297 363 1271 296 1271 c 256
296 1181 m 256
 439 1181 526 1258 526 1394 c 256
 526 1530 438 1606 296 1606 c 256
 153 1606 66 1530 66 1394 c 256
 66 1258 153 1181 296 1181 c 256
EndSplineSet
EndChar

StartChar: s
Encoding: 115 115 397
Width: 1048
VWidth: 0
GlyphClass: 2
Flags: HW
PickledData: "(dp1
S'org.robofab.postScriptHintData'
p2
(dp3
sS'com.typemytype.robofont.layerData'
p4
(dp5
s."
AnchorPoint: "top" 574 1074 basechar 0
AnchorPoint: "bot" 534 0 basechar 0
LayerCount: 2
Fore
SplineSet
533 1094 m 256
 321 1094 142 1011 142 785 c 256
 142 646 199 541 364 489 c 258
 600 415 l 258
 669 393 691 354 691 307 c 256
 691 252 673 166 545 166 c 256
 439 166 306 197 191 246 c 257
 136 61 l 257
 272 11 416 -20 544 -20 c 256
 766 -20 940 71 940 303 c 256
 940 471 879 569 698 626 c 258
 476 696 l 258
 426 711 402 744 402 792 c 256
 402 861 429 907 553 907 c 256
 655 907 789 870 852 837 c 257
 916 1006 l 257
 808 1060 666 1094 533 1094 c 256
EndSplineSet
EndChar

StartChar: section
Encoding: 167 167 404
Width: 1085
VWidth: 0
GlyphClass: 2
Flags: HW
PickledData: "(dp1
S'org.robofab.postScriptHintData'
p2
(dp3
s."
LayerCount: 2
Fore
SplineSet
124 112 m 257
 222 32 374 -22 556 -22 c 256
 813 -22 941 123 941 304 c 256
 941 403 912 457 857 505 c 257
 925 568 963 642 963 716 c 256
 963 814 896 911 748 981 c 258
 487 1104 l 258
 435 1129 404 1151 404 1206 c 256
 404 1273 464 1308 551 1308 c 256
 632 1308 736 1279 840 1218 c 257
 924 1377 l 257
 854 1431 713 1497 529 1497 c 256
 300 1497 150 1403 150 1192 c 256
 150 1104 181 1048 242 999 c 257
 175 949 133 872 133 792 c 256
 133 700 188 604 326 537 c 258
 587 411 l 258
 665 373 689 339 689 286 c 256
 689 220 624 176 524 176 c 256
 440 176 332 207 218 281 c 257
 124 112 l 257
738 579 m 257
 403 733 l 257
 339 761 318 795 318 848 c 256
 318 884 343 929 360 941 c 257
 661 797 l 257
 751 758 760 705 760 652 c 256
 760 628 753 601 738 579 c 257
EndSplineSet
EndChar

StartChar: seven
Encoding: 55 55 406
Width: 1379
VWidth: 0
GlyphClass: 2
Flags: HW
PickledData: "(dp1
S'org.robofab.postScriptHintData'
p2
(dp3
s."
LayerCount: 2
Fore
SplineSet
354 0 m 257
 668 0 l 257
 1222 1270 l 257
 1222 1476 l 257
 224 1476 l 257
 224 1244 l 257
 898 1244 l 257
 354 0 l 257
EndSplineSet
EndChar

StartChar: six
Encoding: 54 54 407
Width: 1379
VWidth: 0
GlyphClass: 2
Flags: HW
PickledData: "(dp1
S'org.robofab.postScriptHintData'
p2
(dp3
s."
LayerCount: 2
Fore
SplineSet
711 -20 m 256
 1043 -20 1252 158 1252 446 c 256
 1252 804 1081 930 767 930 c 256
 737 930 647 915 611 904 c 257
 933 1477 l 257
 613 1477 l 257
 323 965 l 257
 245 816 188 650 188 459 c 256
 188 163 390 -20 711 -20 c 256
725 199 m 256
 570 199 472 299 472 458 c 256
 472 629 546 726 721 726 c 256
 913 726 979 623 979 460 c 256
 979 300 881 199 725 199 c 256
EndSplineSet
EndChar

StartChar: slash
Encoding: 47 47 408
Width: 1024
VWidth: 0
GlyphClass: 2
Flags: HW
PickledData: "(dp1
S'org.robofab.postScriptHintData'
p2
(dp3
s."
LayerCount: 2
Fore
SplineSet
106 0 m 257
 349 0 l 257
 918 1516 l 257
 675 1516 l 257
 106 0 l 257
EndSplineSet
EndChar

StartChar: sterling
Encoding: 163 163 410
Width: 1285
VWidth: 0
GlyphClass: 2
Flags: HW
PickledData: "(dp1
S'org.robofab.postScriptHintData'
p2
(dp3
s."
LayerCount: 2
Fore
SplineSet
206 0 m 257
 1124 0 l 257
 1124 226 l 257
 516 226 l 257
 550 621 l 257
 1043 621 l 257
 1043 812 l 257
 567 812 l 257
 586 1044 l 257
 596 1180 639 1281 795 1281 c 256
 866 1281 953 1261 1059 1214 c 257
 1130 1415 l 257
 1052 1467 914 1515 771 1515 c 256
 440 1515 307 1344 291 1061 c 257
 271 812 l 257
 134 812 l 257
 134 621 l 257
 256 621 l 257
 206 0 l 257
EndSplineSet
EndChar

StartChar: summation
Encoding: 8721 8721 411
Width: 1196
VWidth: 0
GlyphClass: 2
Flags: HW
PickledData: "(dp1
S'org.robofab.postScriptHintData'
p2
(dp3
s."
LayerCount: 2
Fore
SplineSet
1083 0 m 257
 1083 232 l 257
 456 232 l 257
 903 718 l 257
 903 817 l 257
 468 1246 l 257
 1083 1246 l 257
 1083 1476 l 257
 129 1476 l 257
 129 1243 l 257
 595 762 l 257
 129 235 l 257
 129 0 l 257
 1083 0 l 257
EndSplineSet
EndChar

StartChar: t
Encoding: 116 116 412
Width: 860
VWidth: 0
GlyphClass: 2
Flags: HW
PickledData: "(dp1
S'org.robofab.postScriptHintData'
p2
(dp3
s."
AnchorPoint: "top" 398 1408 basechar 0
AnchorPoint: "caron.alt" 402 1074 basechar 0
AnchorPoint: "bot" 471 24 basechar 0
AnchorPoint: "mid" 378 620 basechar 0
LayerCount: 2
Fore
SplineSet
647 -12 m 258
 744 -12 l 257
 754 190 l 257
 692 190 l 258
 512 190 492 227 492 360 c 258
 492 901 l 257
 747 901 l 257
 747 1074 l 257
 492 1074 l 257
 492 1419 l 257
 253 1419 l 257
 228 1074 l 257
 50 1074 l 257
 50 901 l 257
 220 901 l 257
 220 341 l 258
 220 65 323 -12 647 -12 c 258
EndSplineSet
EndChar

StartChar: thorn
Encoding: 254 254 417
Width: 1212
VWidth: 0
GlyphClass: 2
Flags: HW
PickledData: "(dp1
S'org.robofab.postScriptHintData'
p2
(dp3
s."
LayerCount: 2
Fore
SplineSet
158 -410 m 257
 431 -410 l 257
 431 17 l 257
 484 -6 551 -24 636 -24 c 256
 939 -24 1080 142 1080 326 c 258
 1080 751 l 258
 1080 957 928 1095 668 1095 c 256
 577 1095 494 1071 431 1036 c 257
 431 1516 l 257
 158 1516 l 257
 158 -410 l 257
614 165 m 256
 509 165 446 205 431 213 c 257
 431 841 l 257
 463 872 535 906 623 906 c 256
 736 906 807 862 807 755 c 258
 807 320 l 258
 807 211 737 165 614 165 c 256
EndSplineSet
EndChar

StartChar: three
Encoding: 51 51 418
Width: 1379
VWidth: 0
GlyphClass: 2
Flags: HW
PickledData: "(dp1
S'org.robofab.postScriptHintData'
p2
(dp3
s."
LayerCount: 2
Fore
SplineSet
705 -20 m 256
 1033 -20 1216 139 1216 426 c 256
 1216 611 1132 737 981 780 c 257
 1124 811 1203 926 1203 1101 c 256
 1203 1355 1026 1496 707 1496 c 256
 397 1496 223 1331 221 1033 c 257
 500 1033 l 257
 499 1187 574 1272 711 1272 c 256
 843 1272 916 1206 916 1087 c 256
 916 952 856 877 637 877 c 257
 637 678 l 257
 861 678 923 593 923 439 c 256
 923 276 846 201 708 201 c 256
 562 201 496 285 494 436 c 257
 215 436 l 257
 222 143 387 -20 705 -20 c 256
EndSplineSet
Substitution2: "supsSuperscriptlookup11 subtable" uni00B3
EndChar

StartChar: threequarters
Encoding: 190 190 419
Width: 2882
VWidth: 0
GlyphClass: 3
Flags: HW
PickledData: "(dp1
S'org.robofab.postScriptHintData'
p2
(dp3
s."
LayerCount: 2
Fore
SplineSet
613 437 m 256
 889 437 967 582 967 744 c 256
 967 863 931 956 803 990 c 257
 938 1018 958 1120 958 1219 c 256
 958 1392 844 1496 619 1496 c 256
 390 1496 250 1423 249 1156 c 257
 434 1156 l 257
 434 1162 l 258
 434 1311 470 1344 611 1344 c 256
 735 1344 773 1297 773 1209 c 256
 773 1106 767 1059 562 1059 c 257
 562 917 l 257
 746 917 779 873 779 753 c 256
 779 651 754 591 626 591 c 256
 489 591 432 612 430 773 c 257
 245 773 l 257
 250 537 344 437 613 437 c 256
2018 0 m 257
 2177 0 l 257
 2177 210 l 257
 2345 210 l 257
 2345 373 l 257
 2177 373 l 257
 2177 615 l 257
 2018 615 l 257
 2018 373 l 257
 1719 373 l 257
 1988 1074 l 257
 1797 1074 l 257
 1517 369 l 257
 1517 210 l 257
 2018 210 l 257
 2018 0 l 257
889 0 m 257
 1063 0 l 257
 1704 1505 l 257
 1530 1505 l 257
 889 0 l 257
EndSplineSet
Ligature2: "fracDiagonalFractionslookup12 subtable" three slash four
EndChar

StartChar: uni00B3
Encoding: 179 179 420
Width: 927
VWidth: 0
GlyphClass: 2
Flags: HW
PickledData: "(dp1
S'org.robofab.postScriptHintData'
p2
(dp3
s."
LayerCount: 2
Fore
SplineSet
140 918 m 257
 143 707 268 608 472 608 c 256
 674 608 805 689 805 874 c 256
 805 997 755 1073 637 1104 c 257
 746 1125 792 1214 792 1318 c 256
 792 1510 653 1582 466 1582 c 256
 258 1582 146 1485 145 1276 c 257
 334 1276 l 257
 334 1386 363 1432 466 1432 c 256
 572 1432 598 1378 598 1310 c 256
 598 1212 563 1174 388 1174 c 257
 388 1034 l 257
 563 1034 605 994 605 879 c 256
 605 798 562 760 466 760 c 256
 366 760 333 807 330 918 c 257
 140 918 l 257
EndSplineSet
EndChar

StartChar: tilde
Encoding: 732 732 421
Width: 759
VWidth: 0
GlyphClass: 4
Flags: HW
PickledData: "(dp1
S'org.robofab.postScriptHintData'
p2
(dp3
s."
AnchorPoint: "top" 386 1074 mark 0
LayerCount: 2
Fore
SplineSet
269 1231 m 256
 422 1231 462 1334 516 1334 c 256
 549 1334 572 1308 572 1247 c 257
 690 1247 l 257
 690 1434 610 1507 490 1507 c 256
 336 1507 300 1405 250 1405 c 256
 215 1405 187 1428 187 1491 c 257
 69 1491 l 257
 69 1304 149 1231 269 1231 c 256
EndSplineSet
EndChar

StartChar: trademark
Encoding: 8482 8482 422
Width: 1843
VWidth: 0
GlyphClass: 2
Flags: HW
PickledData: "(dp1
S'org.robofab.postScriptHintData'
p2
(dp3
s."
LayerCount: 2
Fore
SplineSet
825 766 m 257
 990 766 l 257
 990 1239 l 257
 1149 931 l 257
 1310 931 l 257
 1462 1239 l 257
 1462 766 l 257
 1629 766 l 257
 1629 1446 l 257
 1413 1446 l 257
 1227 1103 l 257
 1043 1446 l 257
 825 1446 l 257
 825 766 l 257
315 766 m 257
 510 766 l 257
 510 1302 l 257
 692 1302 l 257
 692 1446 l 257
 133 1446 l 257
 133 1302 l 257
 315 1302 l 257
 315 766 l 257
EndSplineSet
EndChar

StartChar: two
Encoding: 50 50 423
Width: 1379
VWidth: 0
GlyphClass: 2
Flags: HW
PickledData: "(dp1
S'org.robofab.postScriptHintData'
p2
(dp3
s."
LayerCount: 2
Fore
SplineSet
277 0 m 257
 1165 0 l 257
 1165 235 l 257
 604 235 l 257
 912 526 l 258
 1096 700 1179 843 1179 1060 c 256
 1179 1313 1037 1496 709 1496 c 256
 318 1496 202 1337 202 992 c 257
 502 992 l 257
 502 1200 559 1267 717 1267 c 256
 824 1267 892 1195 892 1058 c 256
 892 947 862 864 738 737 c 258
 241 226 l 257
 277 0 l 257
EndSplineSet
Substitution2: "supsSuperscriptlookup11 subtable" uni00B2
EndChar

StartChar: uni00B2
Encoding: 178 178 424
Width: 1005
VWidth: 0
GlyphClass: 2
Flags: HW
PickledData: "(dp1
S'org.robofab.postScriptHintData'
p2
(dp3
s."
LayerCount: 2
Fore
SplineSet
189 624 m 257
 828 624 l 257
 828 773 l 257
 400 773 l 257
 643 971 l 258
 778 1081 845 1163 845 1295 c 256
 845 1455 746 1582 497 1582 c 256
 235 1582 134 1487 134 1256 c 257
 335 1256 l 257
 335 1397 381 1435 505 1435 c 256
 614 1435 655 1384 655 1294 c 256
 655 1221 628 1177 525 1087 c 258
 165 772 l 257
 189 624 l 257
EndSplineSet
EndChar

StartChar: u
Encoding: 117 117 425
Width: 1269
VWidth: 0
GlyphClass: 2
Flags: HW
PickledData: "(dp1
S'org.robofab.postScriptHintData'
p2
(dp3
s."
AnchorPoint: "top" 643 1074 basechar 0
AnchorPoint: "ogonek" 970 0 basechar 0
LayerCount: 2
Fore
SplineSet
162 291 m 258
 162 104 299 -24 519 -24 c 256
 660 -24 796 34 837 118 c 257
 845 0 l 257
 1101 0 l 257
 1101 1074 l 257
 829 1074 l 257
 829 350 l 258
 829 230 715 182 616 182 c 256
 532 182 434 223 434 335 c 258
 434 1074 l 257
 162 1074 l 257
 162 291 l 258
EndSplineSet
EndChar

StartChar: underscore
Encoding: 95 95 436
Width: 904
VWidth: 0
GlyphClass: 2
Flags: HW
PickledData: "(dp1
S'org.robofab.postScriptHintData'
p2
(dp3
s."
LayerCount: 2
Fore
SplineSet
8 -32 m 257
 891 -32 l 257
 891 143 l 257
 8 143 l 257
 8 -32 l 257
EndSplineSet
EndChar

StartChar: uni0307
Encoding: 775 775 450
Width: 600
VWidth: 0
GlyphClass: 4
Flags: HW
PickledData: "(dp1
S'org.robofab.postScriptHintData'
p2
(dp3
s."
AnchorPoint: "top" 293 1060 mark 0
LayerCount: 2
Fore
SplineSet
186 1327 m 257
 379 1327 l 257
 379 1535 l 257
 186 1535 l 257
 186 1327 l 257
EndSplineSet
EndChar

StartChar: uni030F
Encoding: 783 783 451
Width: 1024
VWidth: 0
GlyphClass: 4
Flags: HW
PickledData: "(dp1
S'org.robofab.postScriptHintData'
p2
(dp3
s."
AnchorPoint: "top" 638 1074 mark 0
LayerCount: 2
Fore
SplineSet
749 1157 m 257
 898 1157 l 257
 784 1522 l 257
 516 1522 l 257
 749 1157 l 257
339 1157 m 257
 488 1157 l 257
 374 1522 l 257
 106 1522 l 257
 339 1157 l 257
EndSplineSet
EndChar

StartChar: uni0311
Encoding: 785 785 452
Width: 575
VWidth: 0
GlyphClass: 4
Flags: HW
PickledData: "(dp1
S'org.robofab.postScriptHintData'
p2
(dp3
s."
AnchorPoint: "top" 301 1074 mark 0
LayerCount: 2
Fore
SplineSet
34 1217 m 257
 178 1217 l 257
 178 1293 234 1317 290 1317 c 256
 346 1317 402 1293 402 1217 c 257
 546 1217 l 257
 546 1417 418 1476 290 1476 c 256
 162 1476 34 1417 34 1217 c 257
EndSplineSet
EndChar

StartChar: uni0358
Encoding: 856 856 455
Width: 600
VWidth: 0
GlyphClass: 4
Flags: HW
PickledData: "(dp1
S'org.robofab.postScriptHintData'
p2
(dp3
s."
AnchorPoint: "top" 306 1060 mark 0
LayerCount: 2
Fore
SplineSet
199 1327 m 257
 392 1327 l 257
 392 1535 l 257
 199 1535 l 257
 199 1327 l 257
EndSplineSet
EndChar

StartChar: v
Encoding: 118 118 460
Width: 1171
VWidth: 0
GlyphClass: 2
Flags: HW
PickledData: "(dp1
S'org.robofab.postScriptHintData'
p2
(dp3
s."
LayerCount: 2
Fore
SplineSet
450 0 m 257
 739 0 l 257
 1103 1074 l 257
 846 1074 l 257
 595 266 l 257
 339 1074 l 257
 68 1074 l 257
 450 0 l 257
EndSplineSet
EndChar

StartChar: w
Encoding: 119 119 461
Width: 1692
VWidth: 0
GlyphClass: 2
Flags: HW
PickledData: "(dp1
S'org.robofab.postScriptHintData'
p2
(dp3
s."
AnchorPoint: "top" 856 1074 basechar 0
LayerCount: 2
Fore
SplineSet
365 0 m 257
 623 0 l 257
 852 741 l 257
 1072 0 l 257
 1338 0 l 257
 1624 1074 l 257
 1371 1074 l 257
 1192 295 l 257
 960 1074 l 257
 739 1074 l 257
 514 304 l 257
 322 1074 l 257
 68 1074 l 257
 365 0 l 257
EndSplineSet
EndChar

StartChar: x
Encoding: 120 120 466
Width: 1118
VWidth: 0
GlyphClass: 2
Flags: HW
PickledData: "(dp1
S'org.robofab.postScriptHintData'
p2
(dp3
s."
LayerCount: 2
Fore
SplineSet
54 0 m 257
 343 0 l 257
 567 338 l 257
 793 0 l 257
 1064 0 l 257
 702 536 l 257
 1062 1074 l 257
 785 1074 l 257
 562 738 l 257
 339 1074 l 257
 55 1074 l 257
 424 540 l 257
 54 0 l 257
EndSplineSet
EndChar

StartChar: y
Encoding: 121 121 467
Width: 1120
VWidth: 0
GlyphClass: 2
Flags: HW
PickledData: "(dp1
S'org.robofab.postScriptHintData'
p2
(dp3
s."
AnchorPoint: "top" 579 1074 basechar 0
LayerCount: 2
Fore
SplineSet
169 -465 m 257
 509 -435 585 -355 758 140 c 258
 1084 1074 l 257
 814 1074 l 257
 591 353 l 257
 312 1074 l 257
 50 1074 l 257
 454 36 l 257
 392 -198 345 -239 149 -260 c 257
 169 -465 l 257
EndSplineSet
EndChar

StartChar: yen
Encoding: 165 165 471
Width: 1304
VWidth: 0
GlyphClass: 2
Flags: HW
PickledData: "(dp1
S'org.robofab.postScriptHintData'
p2
(dp3
s."
LayerCount: 2
Fore
SplineSet
1020 533 m 257
 1020 667 l 257
 278 667 l 257
 278 533 l 257
 1020 533 l 257
1020 231 m 257
 1020 365 l 257
 278 365 l 257
 278 231 l 257
 1020 231 l 257
EndSplineSet
Refer: 159 89 N 1 0 0 1 0 0 2
EndChar

StartChar: z
Encoding: 122 122 475
Width: 995
VWidth: 0
GlyphClass: 2
Flags: HW
PickledData: "(dp1
S'org.robofab.postScriptHintData'
p2
(dp3
s."
AnchorPoint: "top" 529 1074 basechar 0
AnchorPoint: "bot" 493 0 basechar 0
LayerCount: 2
Fore
SplineSet
121 0 m 257
 880 0 l 257
 880 190 l 257
 416 190 l 257
 870 910 l 257
 870 1074 l 257
 124 1074 l 257
 124 888 l 257
 571 888 l 257
 121 167 l 257
 121 0 l 257
EndSplineSet
EndChar

StartChar: zero
Encoding: 48 48 479
Width: 1420
VWidth: 0
GlyphClass: 2
Flags: HW
PickledData: "(dp1
S'org.robofab.postScriptHintData'
p2
(dp3
s."
LayerCount: 2
Fore
SplineSet
719 205 m 256
 508 205 450 371 450 500 c 258
 450 972 l 258
 450 1102 499 1270 719 1270 c 256
 937 1270 982 1102 982 972 c 258
 982 500 l 258
 982 371 931 205 719 205 c 256
719 -20 m 256
 1111 -20 1270 245 1270 509 c 258
 1270 960 l 258
 1270 1232 1119 1496 719 1496 c 256
 312 1496 150 1236 150 964 c 258
 150 505 l 258
 150 238 318 -20 719 -20 c 256
EndSplineSet
EndChar

StartChar: uni00AD
Encoding: 173 173 481
Width: 968
VWidth: 0
GlyphClass: 4
Flags: HW
AnchorPoint: "mid" 476 569 mark 0
LayerCount: 2
Fore
SplineSet
132 494 m 257
 836 494 l 257
 836 642 l 257
 132 642 l 257
 132 494 l 257
EndSplineSet
EndChar

StartChar: uni2015
Encoding: 8213 8213 489
Width: 4096
VWidth: 0
GlyphClass: 2
Flags: HW
LayerCount: 2
Fore
SplineSet
132 494 m 257
 132 642 l 257
 3964 642 l 257
 3964 494 l 257
 132 494 l 257
EndSplineSet
EndChar

StartChar: uni02C9
Encoding: 713 713 495
Width: 511
VWidth: 0
GlyphClass: 4
Flags: HW
AnchorPoint: "top" 257 1074 mark 0
AnchorPoint: "mid" 258 1329 mark 0
LayerCount: 2
Fore
SplineSet
-47 1251 m 257
 557 1251 l 257
 557 1408 l 257
 -47 1408 l 257
 -47 1251 l 257
EndSplineSet
EndChar
